<mxfile host="app.diagrams.net" modified="2024-05-14T21:46:31.301Z" agent="Mozilla/5.0 (Windows NT 10.0; Win64; x64) AppleWebKit/537.36 (KHTML, like Gecko) Chrome/124.0.0.0 Safari/537.36" etag="whkqfb_Gp2sHfTalDcYN" version="24.4.0" type="device">
  <diagram id="C5RBs43oDa-KdzZeNtuy" name="Page-1">
    <mxGraphModel dx="3154" dy="1983" grid="1" gridSize="10" guides="1" tooltips="1" connect="1" arrows="1" fold="1" page="1" pageScale="1" pageWidth="827" pageHeight="1169" math="0" shadow="0">
      <root>
        <mxCell id="WIyWlLk6GJQsqaUBKTNV-0" />
        <mxCell id="WIyWlLk6GJQsqaUBKTNV-1" parent="WIyWlLk6GJQsqaUBKTNV-0" />
        <mxCell id="zkfFHV4jXpPFQw0GAbJ--0" value="GroupDrive" style="swimlane;fontStyle=2;align=center;verticalAlign=top;childLayout=stackLayout;horizontal=1;startSize=26;horizontalStack=0;resizeParent=1;resizeLast=0;collapsible=1;marginBottom=0;rounded=0;shadow=0;strokeWidth=1;labelBackgroundColor=none;" parent="WIyWlLk6GJQsqaUBKTNV-1" vertex="1">
          <mxGeometry x="-235" y="340" width="286" height="312" as="geometry">
            <mxRectangle x="230" y="140" width="160" height="26" as="alternateBounds" />
          </mxGeometry>
        </mxCell>
        <mxCell id="zkfFHV4jXpPFQw0GAbJ--1" value="+ Id : int &lt;&lt;+get&gt;&gt; &lt;&lt;+set&gt;&gt;" style="text;align=left;verticalAlign=top;spacingLeft=4;spacingRight=4;overflow=hidden;rotatable=0;points=[[0,0.5],[1,0.5]];portConstraint=eastwest;labelBackgroundColor=none;" parent="zkfFHV4jXpPFQw0GAbJ--0" vertex="1">
          <mxGeometry y="26" width="286" height="26" as="geometry" />
        </mxCell>
        <mxCell id="zkfFHV4jXpPFQw0GAbJ--2" value="+ TimeOfReservation : DateTime &lt;&lt;+get&gt;&gt; &lt;&lt;+set&gt;&gt;" style="text;align=left;verticalAlign=top;spacingLeft=4;spacingRight=4;overflow=hidden;rotatable=0;points=[[0,0.5],[1,0.5]];portConstraint=eastwest;rounded=0;shadow=0;html=0;labelBackgroundColor=none;" parent="zkfFHV4jXpPFQw0GAbJ--0" vertex="1">
          <mxGeometry y="52" width="286" height="26" as="geometry" />
        </mxCell>
        <mxCell id="pA0bBhv7EQgGePk6_dJT-4" value="+ Date: DateTime &lt;&lt;+get&gt;&gt; &lt;&lt;+set&gt;&gt;" style="text;align=left;verticalAlign=top;spacingLeft=4;spacingRight=4;overflow=hidden;rotatable=0;points=[[0,0.5],[1,0.5]];portConstraint=eastwest;rounded=0;shadow=0;html=0;labelBackgroundColor=none;" parent="zkfFHV4jXpPFQw0GAbJ--0" vertex="1">
          <mxGeometry y="78" width="286" height="26" as="geometry" />
        </mxCell>
        <mxCell id="KK_UZ6puGZd0_c0NW_Tj-26" style="edgeStyle=orthogonalEdgeStyle;rounded=0;orthogonalLoop=1;jettySize=auto;html=1;exitX=0;exitY=0.5;exitDx=0;exitDy=0;" parent="zkfFHV4jXpPFQw0GAbJ--0" source="pA0bBhv7EQgGePk6_dJT-7" edge="1">
          <mxGeometry relative="1" as="geometry">
            <mxPoint x="-165" y="-230" as="targetPoint" />
          </mxGeometry>
        </mxCell>
        <mxCell id="pA0bBhv7EQgGePk6_dJT-7" value="+ Delay : double &lt;&lt;+get&gt;&gt; &lt;&lt;+set&gt;&gt;" style="text;align=left;verticalAlign=top;spacingLeft=4;spacingRight=4;overflow=hidden;rotatable=0;points=[[0,0.5],[1,0.5]];portConstraint=eastwest;rounded=0;shadow=0;html=0;labelBackgroundColor=none;" parent="zkfFHV4jXpPFQw0GAbJ--0" vertex="1">
          <mxGeometry y="104" width="286" height="26" as="geometry" />
        </mxCell>
        <mxCell id="pA0bBhv7EQgGePk6_dJT-11" value="+ NumberOfPeople : int &lt;&lt;+get&gt;&gt; &lt;&lt;+set&gt;&gt;" style="text;align=left;verticalAlign=top;spacingLeft=4;spacingRight=4;overflow=hidden;rotatable=0;points=[[0,0.5],[1,0.5]];portConstraint=eastwest;rounded=0;shadow=0;html=0;labelBackgroundColor=none;" parent="zkfFHV4jXpPFQw0GAbJ--0" vertex="1">
          <mxGeometry y="130" width="286" height="26" as="geometry" />
        </mxCell>
        <mxCell id="zkfFHV4jXpPFQw0GAbJ--17" value="TourRequest" style="swimlane;fontStyle=0;align=center;verticalAlign=top;childLayout=stackLayout;horizontal=1;startSize=26;horizontalStack=0;resizeParent=1;resizeLast=0;collapsible=1;marginBottom=0;rounded=0;shadow=0;strokeWidth=1;labelBackgroundColor=none;" parent="WIyWlLk6GJQsqaUBKTNV-1" vertex="1">
          <mxGeometry x="-235" y="160" width="310" height="130" as="geometry">
            <mxRectangle x="550" y="140" width="160" height="26" as="alternateBounds" />
          </mxGeometry>
        </mxCell>
        <mxCell id="zkfFHV4jXpPFQw0GAbJ--18" value="+ Id : int &lt;&lt;+get&gt;&gt; &lt;&lt;+set&gt;&gt;" style="text;align=left;verticalAlign=top;spacingLeft=4;spacingRight=4;overflow=hidden;rotatable=0;points=[[0,0.5],[1,0.5]];portConstraint=eastwest;labelBackgroundColor=none;" parent="zkfFHV4jXpPFQw0GAbJ--17" vertex="1">
          <mxGeometry y="26" width="310" height="26" as="geometry" />
        </mxCell>
        <mxCell id="zkfFHV4jXpPFQw0GAbJ--20" value="+ IsComplex : bool &lt;&lt;+get&gt;&gt; &lt;&lt;+set&gt;&gt;" style="text;align=left;verticalAlign=top;spacingLeft=4;spacingRight=4;overflow=hidden;rotatable=0;points=[[0,0.5],[1,0.5]];portConstraint=eastwest;rounded=0;shadow=0;html=0;labelBackgroundColor=none;" parent="zkfFHV4jXpPFQw0GAbJ--17" vertex="1">
          <mxGeometry y="52" width="310" height="26" as="geometry" />
        </mxCell>
        <mxCell id="zkfFHV4jXpPFQw0GAbJ--21" value="+ IsAccepted : TourRequestStatus &lt;&lt;+get&gt;&gt; &lt;&lt;+set&gt;&gt;" style="text;align=left;verticalAlign=top;spacingLeft=4;spacingRight=4;overflow=hidden;rotatable=0;points=[[0,0.5],[1,0.5]];portConstraint=eastwest;rounded=0;shadow=0;html=0;labelBackgroundColor=none;" parent="zkfFHV4jXpPFQw0GAbJ--17" vertex="1">
          <mxGeometry y="78" width="310" height="26" as="geometry" />
        </mxCell>
        <mxCell id="pA0bBhv7EQgGePk6_dJT-13" value="TourRequestSegment" style="swimlane;fontStyle=2;align=center;verticalAlign=top;childLayout=stackLayout;horizontal=1;startSize=26;horizontalStack=0;resizeParent=1;resizeLast=0;collapsible=1;marginBottom=0;rounded=0;shadow=0;strokeWidth=1;labelBackgroundColor=none;" parent="WIyWlLk6GJQsqaUBKTNV-1" vertex="1">
          <mxGeometry x="180" y="-20" width="310" height="288" as="geometry">
            <mxRectangle x="230" y="140" width="160" height="26" as="alternateBounds" />
          </mxGeometry>
        </mxCell>
        <mxCell id="pA0bBhv7EQgGePk6_dJT-14" value="+ Id : int &lt;&lt;+get&gt;&gt; &lt;&lt;+set&gt;&gt;" style="text;align=left;verticalAlign=top;spacingLeft=4;spacingRight=4;overflow=hidden;rotatable=0;points=[[0,0.5],[1,0.5]];portConstraint=eastwest;labelBackgroundColor=none;" parent="pA0bBhv7EQgGePk6_dJT-13" vertex="1">
          <mxGeometry y="26" width="310" height="26" as="geometry" />
        </mxCell>
        <mxCell id="pA0bBhv7EQgGePk6_dJT-18" value="+ DateAccepted: DateTime &lt;&lt;+get&gt;&gt; &lt;&lt;+set&gt;&gt;" style="text;align=left;verticalAlign=top;spacingLeft=4;spacingRight=4;overflow=hidden;rotatable=0;points=[[0,0.5],[1,0.5]];portConstraint=eastwest;rounded=0;shadow=0;html=0;labelBackgroundColor=none;" parent="pA0bBhv7EQgGePk6_dJT-13" vertex="1">
          <mxGeometry y="52" width="310" height="26" as="geometry" />
        </mxCell>
        <mxCell id="pA0bBhv7EQgGePk6_dJT-26" value="+ StartDate: DateTime &lt;&lt;+get&gt;&gt; &lt;&lt;+set&gt;&gt;" style="text;align=left;verticalAlign=top;spacingLeft=4;spacingRight=4;overflow=hidden;rotatable=0;points=[[0,0.5],[1,0.5]];portConstraint=eastwest;rounded=0;shadow=0;html=0;labelBackgroundColor=none;" parent="pA0bBhv7EQgGePk6_dJT-13" vertex="1">
          <mxGeometry y="78" width="310" height="26" as="geometry" />
        </mxCell>
        <mxCell id="pA0bBhv7EQgGePk6_dJT-27" value="+ EndDate: DateTime &lt;&lt;+get&gt;&gt; &lt;&lt;+set&gt;&gt;" style="text;align=left;verticalAlign=top;spacingLeft=4;spacingRight=4;overflow=hidden;rotatable=0;points=[[0,0.5],[1,0.5]];portConstraint=eastwest;rounded=0;shadow=0;html=0;labelBackgroundColor=none;" parent="pA0bBhv7EQgGePk6_dJT-13" vertex="1">
          <mxGeometry y="104" width="310" height="26" as="geometry" />
        </mxCell>
        <mxCell id="pA0bBhv7EQgGePk6_dJT-19" value="+ TourDescription : string &lt;&lt;+get&gt;&gt; &lt;&lt;+set&gt;&gt;" style="text;align=left;verticalAlign=top;spacingLeft=4;spacingRight=4;overflow=hidden;rotatable=0;points=[[0,0.5],[1,0.5]];portConstraint=eastwest;rounded=0;shadow=0;html=0;labelBackgroundColor=none;" parent="pA0bBhv7EQgGePk6_dJT-13" vertex="1">
          <mxGeometry y="130" width="310" height="26" as="geometry" />
        </mxCell>
        <mxCell id="pA0bBhv7EQgGePk6_dJT-20" value="+ Capacity : int &lt;&lt;+get&gt;&gt; &lt;&lt;+set&gt;&gt;" style="text;align=left;verticalAlign=top;spacingLeft=4;spacingRight=4;overflow=hidden;rotatable=0;points=[[0,0.5],[1,0.5]];portConstraint=eastwest;rounded=0;shadow=0;html=0;labelBackgroundColor=none;" parent="pA0bBhv7EQgGePk6_dJT-13" vertex="1">
          <mxGeometry y="156" width="310" height="26" as="geometry" />
        </mxCell>
        <mxCell id="pA0bBhv7EQgGePk6_dJT-28" value="+ IsAccepted : TourRequestStatus &lt;&lt;+get&gt;&gt; &lt;&lt;+set&gt;&gt;" style="text;align=left;verticalAlign=top;spacingLeft=4;spacingRight=4;overflow=hidden;rotatable=0;points=[[0,0.5],[1,0.5]];portConstraint=eastwest;rounded=0;shadow=0;html=0;labelBackgroundColor=none;" parent="pA0bBhv7EQgGePk6_dJT-13" vertex="1">
          <mxGeometry y="182" width="310" height="26" as="geometry" />
        </mxCell>
        <mxCell id="pA0bBhv7EQgGePk6_dJT-29" value="TourRequestGuest" style="swimlane;fontStyle=0;align=center;verticalAlign=top;childLayout=stackLayout;horizontal=1;startSize=26;horizontalStack=0;resizeParent=1;resizeLast=0;collapsible=1;marginBottom=0;rounded=0;shadow=0;strokeWidth=1;labelBackgroundColor=none;" parent="WIyWlLk6GJQsqaUBKTNV-1" vertex="1">
          <mxGeometry x="-200" y="-230" width="240" height="156" as="geometry">
            <mxRectangle x="550" y="140" width="160" height="26" as="alternateBounds" />
          </mxGeometry>
        </mxCell>
        <mxCell id="pA0bBhv7EQgGePk6_dJT-30" value="+ Id : int &lt;&lt;+get&gt;&gt; &lt;&lt;+set&gt;&gt;" style="text;align=left;verticalAlign=top;spacingLeft=4;spacingRight=4;overflow=hidden;rotatable=0;points=[[0,0.5],[1,0.5]];portConstraint=eastwest;labelBackgroundColor=none;" parent="pA0bBhv7EQgGePk6_dJT-29" vertex="1">
          <mxGeometry y="26" width="240" height="26" as="geometry" />
        </mxCell>
        <mxCell id="pA0bBhv7EQgGePk6_dJT-33" value="+ Name : string &lt;&lt;+get&gt;&gt; &lt;&lt;+set&gt;&gt;" style="text;align=left;verticalAlign=top;spacingLeft=4;spacingRight=4;overflow=hidden;rotatable=0;points=[[0,0.5],[1,0.5]];portConstraint=eastwest;rounded=0;shadow=0;html=0;labelBackgroundColor=none;" parent="pA0bBhv7EQgGePk6_dJT-29" vertex="1">
          <mxGeometry y="52" width="240" height="26" as="geometry" />
        </mxCell>
        <mxCell id="pA0bBhv7EQgGePk6_dJT-34" value="+ Age : int &lt;&lt;+get&gt;&gt; &lt;&lt;+set&gt;&gt;" style="text;align=left;verticalAlign=top;spacingLeft=4;spacingRight=4;overflow=hidden;rotatable=0;points=[[0,0.5],[1,0.5]];portConstraint=eastwest;rounded=0;shadow=0;html=0;labelBackgroundColor=none;" parent="pA0bBhv7EQgGePk6_dJT-29" vertex="1">
          <mxGeometry y="78" width="240" height="26" as="geometry" />
        </mxCell>
        <mxCell id="pA0bBhv7EQgGePk6_dJT-36" value="TourRequestStatistics" style="swimlane;fontStyle=0;align=center;verticalAlign=top;childLayout=stackLayout;horizontal=1;startSize=26;horizontalStack=0;resizeParent=1;resizeLast=0;collapsible=1;marginBottom=0;rounded=0;shadow=0;strokeWidth=1;labelBackgroundColor=none;" parent="WIyWlLk6GJQsqaUBKTNV-1" vertex="1">
          <mxGeometry x="-200" y="-20" width="240" height="104" as="geometry">
            <mxRectangle x="550" y="140" width="160" height="26" as="alternateBounds" />
          </mxGeometry>
        </mxCell>
        <mxCell id="pA0bBhv7EQgGePk6_dJT-37" value="+ ChosenYear : int &lt;&lt;+get&gt;&gt; &lt;&lt;+set&gt;&gt;" style="text;align=left;verticalAlign=top;spacingLeft=4;spacingRight=4;overflow=hidden;rotatable=0;points=[[0,0.5],[1,0.5]];portConstraint=eastwest;labelBackgroundColor=none;" parent="pA0bBhv7EQgGePk6_dJT-36" vertex="1">
          <mxGeometry y="26" width="240" height="26" as="geometry" />
        </mxCell>
        <mxCell id="pA0bBhv7EQgGePk6_dJT-38" value="+ AcceptedTours : int &lt;&lt;+get&gt;&gt; &lt;&lt;+set&gt;&gt;" style="text;align=left;verticalAlign=top;spacingLeft=4;spacingRight=4;overflow=hidden;rotatable=0;points=[[0,0.5],[1,0.5]];portConstraint=eastwest;rounded=0;shadow=0;html=0;labelBackgroundColor=none;" parent="pA0bBhv7EQgGePk6_dJT-36" vertex="1">
          <mxGeometry y="52" width="240" height="26" as="geometry" />
        </mxCell>
        <mxCell id="pA0bBhv7EQgGePk6_dJT-42" value="+ DeclinedTours : int &lt;&lt;+get&gt;&gt; &lt;&lt;+set&gt;&gt;" style="text;align=left;verticalAlign=top;spacingLeft=4;spacingRight=4;overflow=hidden;rotatable=0;points=[[0,0.5],[1,0.5]];portConstraint=eastwest;rounded=0;shadow=0;html=0;labelBackgroundColor=none;" parent="pA0bBhv7EQgGePk6_dJT-36" vertex="1">
          <mxGeometry y="78" width="240" height="26" as="geometry" />
        </mxCell>
        <mxCell id="pA0bBhv7EQgGePk6_dJT-43" value="Location" style="swimlane;fontStyle=0;align=center;verticalAlign=top;childLayout=stackLayout;horizontal=1;startSize=26;horizontalStack=0;resizeParent=1;resizeLast=0;collapsible=1;marginBottom=0;rounded=0;shadow=0;strokeWidth=1;labelBackgroundColor=none;" parent="WIyWlLk6GJQsqaUBKTNV-1" vertex="1">
          <mxGeometry x="414" y="420" width="220" height="104" as="geometry">
            <mxRectangle x="550" y="140" width="160" height="26" as="alternateBounds" />
          </mxGeometry>
        </mxCell>
        <mxCell id="pA0bBhv7EQgGePk6_dJT-44" value="+ Id : int &lt;&lt;+get&gt;&gt; &lt;&lt;+set&gt;&gt;" style="text;align=left;verticalAlign=top;spacingLeft=4;spacingRight=4;overflow=hidden;rotatable=0;points=[[0,0.5],[1,0.5]];portConstraint=eastwest;labelBackgroundColor=none;" parent="pA0bBhv7EQgGePk6_dJT-43" vertex="1">
          <mxGeometry y="26" width="220" height="26" as="geometry" />
        </mxCell>
        <mxCell id="pA0bBhv7EQgGePk6_dJT-45" value="+ City : string &lt;&lt;+get&gt;&gt; &lt;&lt;+set&gt;&gt;" style="text;align=left;verticalAlign=top;spacingLeft=4;spacingRight=4;overflow=hidden;rotatable=0;points=[[0,0.5],[1,0.5]];portConstraint=eastwest;rounded=0;shadow=0;html=0;labelBackgroundColor=none;" parent="pA0bBhv7EQgGePk6_dJT-43" vertex="1">
          <mxGeometry y="52" width="220" height="26" as="geometry" />
        </mxCell>
        <mxCell id="pA0bBhv7EQgGePk6_dJT-46" value="+ Country : string &lt;&lt;+get&gt;&gt; &lt;&lt;+set&gt;&gt;" style="text;align=left;verticalAlign=top;spacingLeft=4;spacingRight=4;overflow=hidden;rotatable=0;points=[[0,0.5],[1,0.5]];portConstraint=eastwest;rounded=0;shadow=0;html=0;labelBackgroundColor=none;" parent="pA0bBhv7EQgGePk6_dJT-43" vertex="1">
          <mxGeometry y="78" width="220" height="26" as="geometry" />
        </mxCell>
        <mxCell id="pA0bBhv7EQgGePk6_dJT-48" value="Language" style="swimlane;fontStyle=0;align=center;verticalAlign=top;childLayout=stackLayout;horizontal=1;startSize=26;horizontalStack=0;resizeParent=1;resizeLast=0;collapsible=1;marginBottom=0;rounded=0;shadow=0;strokeWidth=1;labelBackgroundColor=none;" parent="WIyWlLk6GJQsqaUBKTNV-1" vertex="1">
          <mxGeometry x="160" y="420" width="200" height="82" as="geometry">
            <mxRectangle x="550" y="140" width="160" height="26" as="alternateBounds" />
          </mxGeometry>
        </mxCell>
        <mxCell id="pA0bBhv7EQgGePk6_dJT-49" value="+ Id : int &lt;&lt;+get&gt;&gt; &lt;&lt;+set&gt;&gt;" style="text;align=left;verticalAlign=top;spacingLeft=4;spacingRight=4;overflow=hidden;rotatable=0;points=[[0,0.5],[1,0.5]];portConstraint=eastwest;labelBackgroundColor=none;" parent="pA0bBhv7EQgGePk6_dJT-48" vertex="1">
          <mxGeometry y="26" width="200" height="26" as="geometry" />
        </mxCell>
        <mxCell id="pA0bBhv7EQgGePk6_dJT-50" value="+ Name : string &lt;&lt;+get&gt;&gt; &lt;&lt;+set&gt;&gt;" style="text;align=left;verticalAlign=top;spacingLeft=4;spacingRight=4;overflow=hidden;rotatable=0;points=[[0,0.5],[1,0.5]];portConstraint=eastwest;rounded=0;shadow=0;html=0;labelBackgroundColor=none;" parent="pA0bBhv7EQgGePk6_dJT-48" vertex="1">
          <mxGeometry y="52" width="200" height="26" as="geometry" />
        </mxCell>
        <mxCell id="pA0bBhv7EQgGePk6_dJT-64" value="&lt;b&gt;User&lt;/b&gt;" style="swimlane;fontStyle=0;childLayout=stackLayout;horizontal=1;startSize=26;fillColor=none;horizontalStack=0;resizeParent=1;resizeParentMax=0;resizeLast=0;collapsible=1;marginBottom=0;whiteSpace=wrap;html=1;labelBackgroundColor=none;" parent="WIyWlLk6GJQsqaUBKTNV-1" vertex="1">
          <mxGeometry x="-580" y="-20" width="260" height="130" as="geometry" />
        </mxCell>
        <mxCell id="pA0bBhv7EQgGePk6_dJT-65" value="+ ld: int&amp;nbsp; &amp;lt;&amp;lt;+get&amp;gt;&amp;gt; &amp;lt;&amp;lt;+set&amp;gt;&amp;gt;" style="text;strokeColor=none;fillColor=none;align=left;verticalAlign=top;spacingLeft=4;spacingRight=4;overflow=hidden;rotatable=0;points=[[0,0.5],[1,0.5]];portConstraint=eastwest;whiteSpace=wrap;html=1;labelBackgroundColor=none;" parent="pA0bBhv7EQgGePk6_dJT-64" vertex="1">
          <mxGeometry y="26" width="260" height="26" as="geometry" />
        </mxCell>
        <mxCell id="pA0bBhv7EQgGePk6_dJT-66" value="+ Username: string &amp;lt;&amp;lt;+get&amp;gt;&amp;gt; &amp;lt;&amp;lt;+set&amp;gt;&amp;gt;" style="text;strokeColor=none;fillColor=none;align=left;verticalAlign=top;spacingLeft=4;spacingRight=4;overflow=hidden;rotatable=0;points=[[0,0.5],[1,0.5]];portConstraint=eastwest;whiteSpace=wrap;html=1;labelBackgroundColor=none;" parent="pA0bBhv7EQgGePk6_dJT-64" vertex="1">
          <mxGeometry y="52" width="260" height="26" as="geometry" />
        </mxCell>
        <mxCell id="pA0bBhv7EQgGePk6_dJT-67" value="+ Password: string &amp;lt;&amp;lt;+get&amp;gt;&amp;gt; &amp;lt;&amp;lt;+set&amp;gt;&amp;gt;" style="text;strokeColor=none;fillColor=none;align=left;verticalAlign=top;spacingLeft=4;spacingRight=4;overflow=hidden;rotatable=0;points=[[0,0.5],[1,0.5]];portConstraint=eastwest;whiteSpace=wrap;html=1;labelBackgroundColor=none;" parent="pA0bBhv7EQgGePk6_dJT-64" vertex="1">
          <mxGeometry y="78" width="260" height="26" as="geometry" />
        </mxCell>
        <mxCell id="pA0bBhv7EQgGePk6_dJT-68" value="+ Role: string&amp;nbsp; &amp;lt;&amp;lt;+get&amp;gt;&amp;gt; &amp;lt;&amp;lt;+set&amp;gt;&amp;gt;" style="text;strokeColor=none;fillColor=none;align=left;verticalAlign=top;spacingLeft=4;spacingRight=4;overflow=hidden;rotatable=0;points=[[0,0.5],[1,0.5]];portConstraint=eastwest;whiteSpace=wrap;html=1;labelBackgroundColor=none;" parent="pA0bBhv7EQgGePk6_dJT-64" vertex="1">
          <mxGeometry y="104" width="260" height="26" as="geometry" />
        </mxCell>
        <mxCell id="pA0bBhv7EQgGePk6_dJT-69" value="&lt;b&gt;&amp;lt;&amp;lt;enum&amp;gt;&amp;gt;&lt;/b&gt;&lt;div&gt;TourRequestStatus&lt;/div&gt;" style="swimlane;fontStyle=0;childLayout=stackLayout;horizontal=1;startSize=40;fillColor=none;horizontalStack=0;resizeParent=1;resizeParentMax=0;resizeLast=0;collapsible=1;marginBottom=0;whiteSpace=wrap;html=1;labelBackgroundColor=none;" parent="WIyWlLk6GJQsqaUBKTNV-1" vertex="1">
          <mxGeometry x="255" y="-150" width="160" height="118" as="geometry" />
        </mxCell>
        <mxCell id="pA0bBhv7EQgGePk6_dJT-70" value="Accepted" style="text;strokeColor=none;fillColor=none;align=left;verticalAlign=top;spacingLeft=4;spacingRight=4;overflow=hidden;rotatable=0;points=[[0,0.5],[1,0.5]];portConstraint=eastwest;whiteSpace=wrap;html=1;labelBackgroundColor=none;" parent="pA0bBhv7EQgGePk6_dJT-69" vertex="1">
          <mxGeometry y="40" width="160" height="26" as="geometry" />
        </mxCell>
        <mxCell id="pA0bBhv7EQgGePk6_dJT-71" value="Cancelled" style="text;strokeColor=none;fillColor=none;align=left;verticalAlign=top;spacingLeft=4;spacingRight=4;overflow=hidden;rotatable=0;points=[[0,0.5],[1,0.5]];portConstraint=eastwest;whiteSpace=wrap;html=1;labelBackgroundColor=none;" parent="pA0bBhv7EQgGePk6_dJT-69" vertex="1">
          <mxGeometry y="66" width="160" height="26" as="geometry" />
        </mxCell>
        <mxCell id="pA0bBhv7EQgGePk6_dJT-73" value="Waiting" style="text;strokeColor=none;fillColor=none;align=left;verticalAlign=top;spacingLeft=4;spacingRight=4;overflow=hidden;rotatable=0;points=[[0,0.5],[1,0.5]];portConstraint=eastwest;whiteSpace=wrap;html=1;labelBackgroundColor=none;" parent="pA0bBhv7EQgGePk6_dJT-69" vertex="1">
          <mxGeometry y="92" width="160" height="26" as="geometry" />
        </mxCell>
        <mxCell id="pA0bBhv7EQgGePk6_dJT-76" value="" style="endArrow=classic;html=1;rounded=0;entryX=0.041;entryY=-0.029;entryDx=0;entryDy=0;entryPerimeter=0;strokeWidth=1;labelBackgroundColor=none;fontColor=default;" parent="WIyWlLk6GJQsqaUBKTNV-1" edge="1">
          <mxGeometry width="50" height="50" relative="1" as="geometry">
            <mxPoint x="440" y="270" as="sourcePoint" />
            <mxPoint x="440" y="414.9839999999999" as="targetPoint" />
          </mxGeometry>
        </mxCell>
        <mxCell id="pA0bBhv7EQgGePk6_dJT-84" value="0..*" style="text;html=1;align=center;verticalAlign=middle;whiteSpace=wrap;rounded=0;labelBackgroundColor=none;" parent="WIyWlLk6GJQsqaUBKTNV-1" vertex="1">
          <mxGeometry x="430" y="266" width="60" height="30" as="geometry" />
        </mxCell>
        <mxCell id="pA0bBhv7EQgGePk6_dJT-85" value="1..1" style="text;html=1;align=center;verticalAlign=middle;whiteSpace=wrap;rounded=0;labelBackgroundColor=none;" parent="WIyWlLk6GJQsqaUBKTNV-1" vertex="1">
          <mxGeometry x="430" y="380" width="60" height="30" as="geometry" />
        </mxCell>
        <mxCell id="pA0bBhv7EQgGePk6_dJT-90" value="0..*" style="text;html=1;align=center;verticalAlign=middle;whiteSpace=wrap;rounded=0;labelBackgroundColor=none;" parent="WIyWlLk6GJQsqaUBKTNV-1" vertex="1">
          <mxGeometry x="30" y="-143" width="60" height="30" as="geometry" />
        </mxCell>
        <mxCell id="pA0bBhv7EQgGePk6_dJT-91" value="1..*" style="text;html=1;align=center;verticalAlign=middle;whiteSpace=wrap;rounded=0;labelBackgroundColor=none;" parent="WIyWlLk6GJQsqaUBKTNV-1" vertex="1">
          <mxGeometry x="130" y="40" width="60" height="30" as="geometry" />
        </mxCell>
        <mxCell id="pA0bBhv7EQgGePk6_dJT-95" value="0..*" style="text;html=1;align=center;verticalAlign=middle;whiteSpace=wrap;rounded=0;labelBackgroundColor=none;" parent="WIyWlLk6GJQsqaUBKTNV-1" vertex="1">
          <mxGeometry x="-250" y="-143" width="60" height="30" as="geometry" />
        </mxCell>
        <mxCell id="pA0bBhv7EQgGePk6_dJT-96" value="1..1" style="text;html=1;align=center;verticalAlign=middle;whiteSpace=wrap;rounded=0;labelBackgroundColor=none;" parent="WIyWlLk6GJQsqaUBKTNV-1" vertex="1">
          <mxGeometry x="-330" y="10" width="60" height="30" as="geometry" />
        </mxCell>
        <mxCell id="pA0bBhv7EQgGePk6_dJT-101" style="edgeStyle=orthogonalEdgeStyle;rounded=0;orthogonalLoop=1;jettySize=auto;html=1;exitX=0;exitY=0.5;exitDx=0;exitDy=0;entryX=1;entryY=0.5;entryDx=0;entryDy=0;labelBackgroundColor=none;fontColor=default;" parent="WIyWlLk6GJQsqaUBKTNV-1" source="pA0bBhv7EQgGePk6_dJT-28" target="zkfFHV4jXpPFQw0GAbJ--18" edge="1">
          <mxGeometry relative="1" as="geometry" />
        </mxCell>
        <mxCell id="pA0bBhv7EQgGePk6_dJT-102" value="1..*" style="text;html=1;align=center;verticalAlign=middle;whiteSpace=wrap;rounded=0;labelBackgroundColor=none;" parent="WIyWlLk6GJQsqaUBKTNV-1" vertex="1">
          <mxGeometry x="130" y="170" width="60" height="30" as="geometry" />
        </mxCell>
        <mxCell id="pA0bBhv7EQgGePk6_dJT-103" value="1..1" style="text;html=1;align=center;verticalAlign=middle;whiteSpace=wrap;rounded=0;labelBackgroundColor=none;" parent="WIyWlLk6GJQsqaUBKTNV-1" vertex="1">
          <mxGeometry x="70" y="170" width="60" height="30" as="geometry" />
        </mxCell>
        <mxCell id="pA0bBhv7EQgGePk6_dJT-105" style="edgeStyle=orthogonalEdgeStyle;rounded=0;orthogonalLoop=1;jettySize=auto;html=1;exitX=1;exitY=0.5;exitDx=0;exitDy=0;entryX=0;entryY=0.5;entryDx=0;entryDy=0;labelBackgroundColor=none;fontColor=default;" parent="WIyWlLk6GJQsqaUBKTNV-1" target="pA0bBhv7EQgGePk6_dJT-18" edge="1">
          <mxGeometry relative="1" as="geometry">
            <mxPoint x="40" y="-165" as="sourcePoint" />
            <Array as="points">
              <mxPoint x="40" y="-110" />
              <mxPoint x="110" y="-110" />
              <mxPoint x="110" y="20" />
              <mxPoint x="130" y="20" />
              <mxPoint x="130" y="45" />
            </Array>
          </mxGeometry>
        </mxCell>
        <mxCell id="pA0bBhv7EQgGePk6_dJT-106" style="edgeStyle=orthogonalEdgeStyle;rounded=0;orthogonalLoop=1;jettySize=auto;html=1;exitX=0;exitY=0.5;exitDx=0;exitDy=0;entryX=1;entryY=0.5;entryDx=0;entryDy=0;labelBackgroundColor=none;fontColor=default;" parent="WIyWlLk6GJQsqaUBKTNV-1" target="pA0bBhv7EQgGePk6_dJT-66" edge="1">
          <mxGeometry relative="1" as="geometry">
            <mxPoint x="-200" y="-165" as="sourcePoint" />
            <Array as="points">
              <mxPoint x="-200" y="-110" />
              <mxPoint x="-260" y="-110" />
              <mxPoint x="-260" y="45" />
            </Array>
          </mxGeometry>
        </mxCell>
        <mxCell id="pA0bBhv7EQgGePk6_dJT-109" style="edgeStyle=orthogonalEdgeStyle;rounded=0;orthogonalLoop=1;jettySize=auto;html=1;exitX=0;exitY=0.5;exitDx=0;exitDy=0;entryX=0.527;entryY=1.038;entryDx=0;entryDy=0;entryPerimeter=0;labelBackgroundColor=none;fontColor=default;" parent="WIyWlLk6GJQsqaUBKTNV-1" target="pA0bBhv7EQgGePk6_dJT-68" edge="1">
          <mxGeometry relative="1" as="geometry">
            <mxPoint x="-444.00001525878906" y="130" as="targetPoint" />
            <mxPoint x="-235" y="457" as="sourcePoint" />
            <Array as="points">
              <mxPoint x="-235" y="490" />
              <mxPoint x="-443" y="490" />
            </Array>
          </mxGeometry>
        </mxCell>
        <mxCell id="pA0bBhv7EQgGePk6_dJT-110" value="0..*" style="text;html=1;align=center;verticalAlign=middle;whiteSpace=wrap;rounded=0;labelBackgroundColor=none;" parent="WIyWlLk6GJQsqaUBKTNV-1" vertex="1">
          <mxGeometry x="-290" y="492" width="60" height="30" as="geometry" />
        </mxCell>
        <mxCell id="pA0bBhv7EQgGePk6_dJT-111" value="1..1" style="text;html=1;align=center;verticalAlign=middle;whiteSpace=wrap;rounded=0;labelBackgroundColor=none;" parent="WIyWlLk6GJQsqaUBKTNV-1" vertex="1">
          <mxGeometry x="-454" y="109" width="60" height="30" as="geometry" />
        </mxCell>
        <mxCell id="pA0bBhv7EQgGePk6_dJT-114" value="" style="endArrow=classic;html=1;rounded=0;entryX=0.4;entryY=0;entryDx=0;entryDy=0;entryPerimeter=0;strokeWidth=1;labelBackgroundColor=none;fontColor=default;" parent="WIyWlLk6GJQsqaUBKTNV-1" target="pA0bBhv7EQgGePk6_dJT-48" edge="1">
          <mxGeometry width="50" height="50" relative="1" as="geometry">
            <mxPoint x="240" y="268" as="sourcePoint" />
            <mxPoint x="240" y="412.9839999999999" as="targetPoint" />
          </mxGeometry>
        </mxCell>
        <mxCell id="pA0bBhv7EQgGePk6_dJT-116" value="0..*" style="text;html=1;align=center;verticalAlign=middle;whiteSpace=wrap;rounded=0;labelBackgroundColor=none;" parent="WIyWlLk6GJQsqaUBKTNV-1" vertex="1">
          <mxGeometry x="230" y="268" width="60" height="30" as="geometry" />
        </mxCell>
        <mxCell id="pA0bBhv7EQgGePk6_dJT-117" value="1..1" style="text;html=1;align=center;verticalAlign=middle;whiteSpace=wrap;rounded=0;labelBackgroundColor=none;" parent="WIyWlLk6GJQsqaUBKTNV-1" vertex="1">
          <mxGeometry x="230" y="380" width="60" height="30" as="geometry" />
        </mxCell>
        <mxCell id="pA0bBhv7EQgGePk6_dJT-120" style="edgeStyle=orthogonalEdgeStyle;rounded=0;orthogonalLoop=1;jettySize=auto;html=1;exitX=1;exitY=0.5;exitDx=0;exitDy=0;entryX=0;entryY=0.25;entryDx=0;entryDy=0;labelBackgroundColor=none;fontColor=default;" parent="WIyWlLk6GJQsqaUBKTNV-1" source="pA0bBhv7EQgGePk6_dJT-4" target="pA0bBhv7EQgGePk6_dJT-48" edge="1">
          <mxGeometry relative="1" as="geometry" />
        </mxCell>
        <mxCell id="pA0bBhv7EQgGePk6_dJT-121" value="0..*" style="text;html=1;align=center;verticalAlign=middle;whiteSpace=wrap;rounded=0;labelBackgroundColor=none;" parent="WIyWlLk6GJQsqaUBKTNV-1" vertex="1">
          <mxGeometry x="40" y="430" width="60" height="30" as="geometry" />
        </mxCell>
        <mxCell id="pA0bBhv7EQgGePk6_dJT-122" value="1..1" style="text;html=1;align=center;verticalAlign=middle;whiteSpace=wrap;rounded=0;labelBackgroundColor=none;" parent="WIyWlLk6GJQsqaUBKTNV-1" vertex="1">
          <mxGeometry x="110" y="410" width="60" height="30" as="geometry" />
        </mxCell>
        <mxCell id="pA0bBhv7EQgGePk6_dJT-123" value="DriveStatus" style="swimlane;fontStyle=0;align=center;verticalAlign=top;childLayout=stackLayout;horizontal=1;startSize=26;horizontalStack=0;resizeParent=1;resizeLast=0;collapsible=1;marginBottom=0;rounded=0;shadow=0;strokeWidth=1;labelBackgroundColor=none;" parent="WIyWlLk6GJQsqaUBKTNV-1" vertex="1">
          <mxGeometry x="-440" y="680" width="230" height="82" as="geometry">
            <mxRectangle x="550" y="140" width="160" height="26" as="alternateBounds" />
          </mxGeometry>
        </mxCell>
        <mxCell id="pA0bBhv7EQgGePk6_dJT-124" value="+ Id : int &lt;&lt;+get&gt;&gt; &lt;&lt;+set&gt;&gt;" style="text;align=left;verticalAlign=top;spacingLeft=4;spacingRight=4;overflow=hidden;rotatable=0;points=[[0,0.5],[1,0.5]];portConstraint=eastwest;labelBackgroundColor=none;" parent="pA0bBhv7EQgGePk6_dJT-123" vertex="1">
          <mxGeometry y="26" width="230" height="26" as="geometry" />
        </mxCell>
        <mxCell id="pA0bBhv7EQgGePk6_dJT-125" value="+ Name : string &lt;&lt;+get&gt;&gt; &lt;&lt;+set&gt;&gt;" style="text;align=left;verticalAlign=top;spacingLeft=4;spacingRight=4;overflow=hidden;rotatable=0;points=[[0,0.5],[1,0.5]];portConstraint=eastwest;rounded=0;shadow=0;html=0;labelBackgroundColor=none;" parent="pA0bBhv7EQgGePk6_dJT-123" vertex="1">
          <mxGeometry y="52" width="230" height="26" as="geometry" />
        </mxCell>
        <mxCell id="pA0bBhv7EQgGePk6_dJT-127" value="1..1" style="text;html=1;align=center;verticalAlign=middle;whiteSpace=wrap;rounded=0;labelBackgroundColor=none;" parent="WIyWlLk6GJQsqaUBKTNV-1" vertex="1">
          <mxGeometry x="-360" y="650" width="60" height="30" as="geometry" />
        </mxCell>
        <mxCell id="pA0bBhv7EQgGePk6_dJT-128" value="0..*" style="text;html=1;align=center;verticalAlign=middle;whiteSpace=wrap;rounded=0;labelBackgroundColor=none;" parent="WIyWlLk6GJQsqaUBKTNV-1" vertex="1">
          <mxGeometry x="-290" y="568" width="60" height="30" as="geometry" />
        </mxCell>
        <mxCell id="pA0bBhv7EQgGePk6_dJT-129" style="edgeStyle=orthogonalEdgeStyle;rounded=0;orthogonalLoop=1;jettySize=auto;html=1;exitX=0;exitY=0.5;exitDx=0;exitDy=0;entryX=1;entryY=0.5;entryDx=0;entryDy=0;labelBackgroundColor=none;fontColor=default;" parent="WIyWlLk6GJQsqaUBKTNV-1" target="pA0bBhv7EQgGePk6_dJT-68" edge="1">
          <mxGeometry relative="1" as="geometry">
            <mxPoint x="-235" y="225" as="sourcePoint" />
            <Array as="points">
              <mxPoint x="-235" y="250" />
              <mxPoint x="-278" y="250" />
              <mxPoint x="-278" y="97" />
            </Array>
          </mxGeometry>
        </mxCell>
        <mxCell id="pA0bBhv7EQgGePk6_dJT-130" value="0..*" style="text;html=1;align=center;verticalAlign=middle;whiteSpace=wrap;rounded=0;labelBackgroundColor=none;" parent="WIyWlLk6GJQsqaUBKTNV-1" vertex="1">
          <mxGeometry x="-290" y="254" width="60" height="30" as="geometry" />
        </mxCell>
        <mxCell id="pA0bBhv7EQgGePk6_dJT-131" value="1..1" style="text;html=1;align=center;verticalAlign=middle;whiteSpace=wrap;rounded=0;labelBackgroundColor=none;" parent="WIyWlLk6GJQsqaUBKTNV-1" vertex="1">
          <mxGeometry x="-330" y="70" width="60" height="30" as="geometry" />
        </mxCell>
        <mxCell id="pA0bBhv7EQgGePk6_dJT-132" value="Address" style="swimlane;fontStyle=0;align=center;verticalAlign=top;childLayout=stackLayout;horizontal=1;startSize=26;horizontalStack=0;resizeParent=1;resizeLast=0;collapsible=1;marginBottom=0;rounded=0;shadow=0;strokeWidth=1;labelBackgroundColor=none;" parent="WIyWlLk6GJQsqaUBKTNV-1" vertex="1">
          <mxGeometry x="160" y="730" width="220" height="110" as="geometry">
            <mxRectangle x="550" y="140" width="160" height="26" as="alternateBounds" />
          </mxGeometry>
        </mxCell>
        <mxCell id="pA0bBhv7EQgGePk6_dJT-133" value="+ Id : int &lt;&lt;+get&gt;&gt; &lt;&lt;+set&gt;&gt;" style="text;align=left;verticalAlign=top;spacingLeft=4;spacingRight=4;overflow=hidden;rotatable=0;points=[[0,0.5],[1,0.5]];portConstraint=eastwest;labelBackgroundColor=none;" parent="pA0bBhv7EQgGePk6_dJT-132" vertex="1">
          <mxGeometry y="26" width="220" height="26" as="geometry" />
        </mxCell>
        <mxCell id="pA0bBhv7EQgGePk6_dJT-135" value="+ Street : string &lt;&lt;+get&gt;&gt; &lt;&lt;+set&gt;&gt;" style="text;align=left;verticalAlign=top;spacingLeft=4;spacingRight=4;overflow=hidden;rotatable=0;points=[[0,0.5],[1,0.5]];portConstraint=eastwest;rounded=0;shadow=0;html=0;labelBackgroundColor=none;" parent="pA0bBhv7EQgGePk6_dJT-132" vertex="1">
          <mxGeometry y="52" width="220" height="26" as="geometry" />
        </mxCell>
        <mxCell id="pA0bBhv7EQgGePk6_dJT-136" value="+ Number : string &lt;&lt;+get&gt;&gt; &lt;&lt;+set&gt;&gt;" style="text;align=left;verticalAlign=top;spacingLeft=4;spacingRight=4;overflow=hidden;rotatable=0;points=[[0,0.5],[1,0.5]];portConstraint=eastwest;rounded=0;shadow=0;html=0;labelBackgroundColor=none;" parent="pA0bBhv7EQgGePk6_dJT-132" vertex="1">
          <mxGeometry y="78" width="220" height="26" as="geometry" />
        </mxCell>
        <mxCell id="pA0bBhv7EQgGePk6_dJT-137" style="edgeStyle=orthogonalEdgeStyle;rounded=0;orthogonalLoop=1;jettySize=auto;html=1;exitX=0.865;exitY=-0.015;exitDx=0;exitDy=0;entryX=0.509;entryY=1;entryDx=0;entryDy=0;entryPerimeter=0;labelBackgroundColor=none;fontColor=default;exitPerimeter=0;" parent="WIyWlLk6GJQsqaUBKTNV-1" source="pA0bBhv7EQgGePk6_dJT-132" target="pA0bBhv7EQgGePk6_dJT-46" edge="1">
          <mxGeometry relative="1" as="geometry" />
        </mxCell>
        <mxCell id="pA0bBhv7EQgGePk6_dJT-138" value="0..*" style="text;html=1;align=center;verticalAlign=middle;whiteSpace=wrap;rounded=0;labelBackgroundColor=none;" parent="WIyWlLk6GJQsqaUBKTNV-1" vertex="1">
          <mxGeometry x="340" y="700" width="60" height="30" as="geometry" />
        </mxCell>
        <mxCell id="pA0bBhv7EQgGePk6_dJT-139" value="1..1" style="text;html=1;align=center;verticalAlign=middle;whiteSpace=wrap;rounded=0;labelBackgroundColor=none;" parent="WIyWlLk6GJQsqaUBKTNV-1" vertex="1">
          <mxGeometry x="470" y="530" width="60" height="30" as="geometry" />
        </mxCell>
        <mxCell id="pA0bBhv7EQgGePk6_dJT-140" style="edgeStyle=orthogonalEdgeStyle;rounded=0;orthogonalLoop=1;jettySize=auto;html=1;exitX=1;exitY=0.5;exitDx=0;exitDy=0;entryX=0.287;entryY=-0.015;entryDx=0;entryDy=0;labelBackgroundColor=none;fontColor=default;entryPerimeter=0;" parent="WIyWlLk6GJQsqaUBKTNV-1" source="pA0bBhv7EQgGePk6_dJT-11" target="pA0bBhv7EQgGePk6_dJT-132" edge="1">
          <mxGeometry relative="1" as="geometry">
            <Array as="points">
              <mxPoint x="51" y="600" />
              <mxPoint x="223" y="600" />
            </Array>
          </mxGeometry>
        </mxCell>
        <mxCell id="pA0bBhv7EQgGePk6_dJT-141" value="0..*" style="text;html=1;align=center;verticalAlign=middle;whiteSpace=wrap;rounded=0;labelBackgroundColor=none;" parent="WIyWlLk6GJQsqaUBKTNV-1" vertex="1">
          <mxGeometry x="40" y="568" width="60" height="30" as="geometry" />
        </mxCell>
        <mxCell id="pA0bBhv7EQgGePk6_dJT-142" value="1..1" style="text;html=1;align=center;verticalAlign=middle;whiteSpace=wrap;rounded=0;labelBackgroundColor=none;" parent="WIyWlLk6GJQsqaUBKTNV-1" vertex="1">
          <mxGeometry x="170" y="700" width="60" height="30" as="geometry" />
        </mxCell>
        <mxCell id="pA0bBhv7EQgGePk6_dJT-144" value="DriverUnreliableReport" style="swimlane;fontStyle=0;align=center;verticalAlign=top;childLayout=stackLayout;horizontal=1;startSize=26;horizontalStack=0;resizeParent=1;resizeLast=0;collapsible=1;marginBottom=0;rounded=0;shadow=0;strokeWidth=1;labelBackgroundColor=none;" parent="WIyWlLk6GJQsqaUBKTNV-1" vertex="1">
          <mxGeometry x="-790" y="268" width="240" height="92" as="geometry">
            <mxRectangle x="550" y="140" width="160" height="26" as="alternateBounds" />
          </mxGeometry>
        </mxCell>
        <mxCell id="pA0bBhv7EQgGePk6_dJT-145" value="+ Id : int &lt;&lt;+get&gt;&gt; &lt;&lt;+set&gt;&gt;" style="text;align=left;verticalAlign=top;spacingLeft=4;spacingRight=4;overflow=hidden;rotatable=0;points=[[0,0.5],[1,0.5]];portConstraint=eastwest;labelBackgroundColor=none;" parent="pA0bBhv7EQgGePk6_dJT-144" vertex="1">
          <mxGeometry y="26" width="240" height="26" as="geometry" />
        </mxCell>
        <mxCell id="pA0bBhv7EQgGePk6_dJT-146" value="+ Date : DateTime &lt;&lt;+get&gt;&gt; &lt;&lt;+set&gt;&gt;" style="text;align=left;verticalAlign=top;spacingLeft=4;spacingRight=4;overflow=hidden;rotatable=0;points=[[0,0.5],[1,0.5]];portConstraint=eastwest;rounded=0;shadow=0;html=0;labelBackgroundColor=none;" parent="pA0bBhv7EQgGePk6_dJT-144" vertex="1">
          <mxGeometry y="52" width="240" height="26" as="geometry" />
        </mxCell>
        <mxCell id="pA0bBhv7EQgGePk6_dJT-150" style="edgeStyle=orthogonalEdgeStyle;rounded=0;orthogonalLoop=1;jettySize=auto;html=1;entryX=0.269;entryY=1;entryDx=0;entryDy=0;entryPerimeter=0;" parent="WIyWlLk6GJQsqaUBKTNV-1" target="pA0bBhv7EQgGePk6_dJT-68" edge="1">
          <mxGeometry relative="1" as="geometry">
            <mxPoint x="-550" y="320" as="sourcePoint" />
            <Array as="points">
              <mxPoint x="-550" y="320" />
              <mxPoint x="-510" y="320" />
            </Array>
          </mxGeometry>
        </mxCell>
        <mxCell id="pA0bBhv7EQgGePk6_dJT-151" value="1..1" style="text;html=1;align=center;verticalAlign=middle;whiteSpace=wrap;rounded=0;labelBackgroundColor=none;" parent="WIyWlLk6GJQsqaUBKTNV-1" vertex="1">
          <mxGeometry x="-560" y="110" width="60" height="30" as="geometry" />
        </mxCell>
        <mxCell id="pA0bBhv7EQgGePk6_dJT-152" value="0..*" style="text;html=1;align=center;verticalAlign=middle;whiteSpace=wrap;rounded=0;labelBackgroundColor=none;" parent="WIyWlLk6GJQsqaUBKTNV-1" vertex="1">
          <mxGeometry x="-560" y="290" width="60" height="30" as="geometry" />
        </mxCell>
        <mxCell id="pA0bBhv7EQgGePk6_dJT-153" value="Drive" style="swimlane;fontStyle=2;align=center;verticalAlign=top;childLayout=stackLayout;horizontal=1;startSize=26;horizontalStack=0;resizeParent=1;resizeLast=0;collapsible=1;marginBottom=0;rounded=0;shadow=0;strokeWidth=1;labelBackgroundColor=none;" parent="WIyWlLk6GJQsqaUBKTNV-1" vertex="1">
          <mxGeometry x="-760" y="599" width="286" height="261" as="geometry">
            <mxRectangle x="230" y="140" width="160" height="26" as="alternateBounds" />
          </mxGeometry>
        </mxCell>
        <mxCell id="pA0bBhv7EQgGePk6_dJT-154" value="+ Id : int &lt;&lt;+get&gt;&gt; &lt;&lt;+set&gt;&gt;" style="text;align=left;verticalAlign=top;spacingLeft=4;spacingRight=4;overflow=hidden;rotatable=0;points=[[0,0.5],[1,0.5]];portConstraint=eastwest;labelBackgroundColor=none;" parent="pA0bBhv7EQgGePk6_dJT-153" vertex="1">
          <mxGeometry y="26" width="286" height="26" as="geometry" />
        </mxCell>
        <mxCell id="KK_UZ6puGZd0_c0NW_Tj-11" style="edgeStyle=orthogonalEdgeStyle;rounded=0;orthogonalLoop=1;jettySize=auto;html=1;exitX=1;exitY=0.5;exitDx=0;exitDy=0;" parent="pA0bBhv7EQgGePk6_dJT-153" edge="1">
          <mxGeometry relative="1" as="geometry">
            <mxPoint x="400" y="-489" as="targetPoint" />
            <mxPoint x="286" y="65" as="sourcePoint" />
          </mxGeometry>
        </mxCell>
        <mxCell id="pA0bBhv7EQgGePk6_dJT-158" value="+ Date: DateTime &lt;&lt;+get&gt;&gt; &lt;&lt;+set&gt;&gt;" style="text;align=left;verticalAlign=top;spacingLeft=4;spacingRight=4;overflow=hidden;rotatable=0;points=[[0,0.5],[1,0.5]];portConstraint=eastwest;rounded=0;shadow=0;html=0;labelBackgroundColor=none;" parent="pA0bBhv7EQgGePk6_dJT-153" vertex="1">
          <mxGeometry y="52" width="286" height="26" as="geometry" />
        </mxCell>
        <mxCell id="pA0bBhv7EQgGePk6_dJT-161" value="+ Delay : double &lt;&lt;+get&gt;&gt; &lt;&lt;+set&gt;&gt;" style="text;align=left;verticalAlign=top;spacingLeft=4;spacingRight=4;overflow=hidden;rotatable=0;points=[[0,0.5],[1,0.5]];portConstraint=eastwest;rounded=0;shadow=0;html=0;labelBackgroundColor=none;" parent="pA0bBhv7EQgGePk6_dJT-153" vertex="1">
          <mxGeometry y="78" width="286" height="26" as="geometry" />
        </mxCell>
        <mxCell id="pA0bBhv7EQgGePk6_dJT-162" value="+ TouristDelay : double &lt;&lt;+get&gt;&gt; &lt;&lt;+set&gt;&gt;" style="text;align=left;verticalAlign=top;spacingLeft=4;spacingRight=4;overflow=hidden;rotatable=0;points=[[0,0.5],[1,0.5]];portConstraint=eastwest;rounded=0;shadow=0;html=0;labelBackgroundColor=none;" parent="pA0bBhv7EQgGePk6_dJT-153" vertex="1">
          <mxGeometry y="104" width="286" height="26" as="geometry" />
        </mxCell>
        <mxCell id="pA0bBhv7EQgGePk6_dJT-166" style="edgeStyle=orthogonalEdgeStyle;rounded=0;orthogonalLoop=1;jettySize=auto;html=1;exitX=1;exitY=0.5;exitDx=0;exitDy=0;entryX=0;entryY=0.25;entryDx=0;entryDy=0;" parent="WIyWlLk6GJQsqaUBKTNV-1" target="pA0bBhv7EQgGePk6_dJT-123" edge="1">
          <mxGeometry relative="1" as="geometry">
            <mxPoint x="-474" y="794" as="sourcePoint" />
            <Array as="points">
              <mxPoint x="-474" y="770" />
              <mxPoint x="-454" y="770" />
              <mxPoint x="-454" y="761" />
              <mxPoint x="-460" y="761" />
              <mxPoint x="-460" y="700" />
            </Array>
          </mxGeometry>
        </mxCell>
        <mxCell id="pA0bBhv7EQgGePk6_dJT-167" value="0..*" style="text;html=1;align=center;verticalAlign=middle;whiteSpace=wrap;rounded=0;labelBackgroundColor=none;" parent="WIyWlLk6GJQsqaUBKTNV-1" vertex="1">
          <mxGeometry x="-490" y="770" width="60" height="30" as="geometry" />
        </mxCell>
        <mxCell id="pA0bBhv7EQgGePk6_dJT-168" value="1..1" style="text;html=1;align=center;verticalAlign=middle;whiteSpace=wrap;rounded=0;labelBackgroundColor=none;" parent="WIyWlLk6GJQsqaUBKTNV-1" vertex="1">
          <mxGeometry x="-490" y="670" width="60" height="30" as="geometry" />
        </mxCell>
        <mxCell id="pA0bBhv7EQgGePk6_dJT-170" style="edgeStyle=orthogonalEdgeStyle;rounded=0;orthogonalLoop=1;jettySize=auto;html=1;exitX=1;exitY=0.5;exitDx=0;exitDy=0;entryX=0.423;entryY=1;entryDx=0;entryDy=0;entryPerimeter=0;" parent="WIyWlLk6GJQsqaUBKTNV-1" source="pA0bBhv7EQgGePk6_dJT-154" target="pA0bBhv7EQgGePk6_dJT-68" edge="1">
          <mxGeometry relative="1" as="geometry">
            <mxPoint x="-470" y="120" as="targetPoint" />
          </mxGeometry>
        </mxCell>
        <mxCell id="pA0bBhv7EQgGePk6_dJT-171" value="0..*" style="text;html=1;align=center;verticalAlign=middle;whiteSpace=wrap;rounded=0;labelBackgroundColor=none;" parent="WIyWlLk6GJQsqaUBKTNV-1" vertex="1">
          <mxGeometry x="-500" y="570" width="60" height="30" as="geometry" />
        </mxCell>
        <mxCell id="pA0bBhv7EQgGePk6_dJT-172" value="1..1" style="text;html=1;align=center;verticalAlign=middle;whiteSpace=wrap;rounded=0;labelBackgroundColor=none;" parent="WIyWlLk6GJQsqaUBKTNV-1" vertex="1">
          <mxGeometry x="-514" y="120" width="60" height="30" as="geometry" />
        </mxCell>
        <mxCell id="pA0bBhv7EQgGePk6_dJT-178" style="edgeStyle=orthogonalEdgeStyle;rounded=0;orthogonalLoop=1;jettySize=auto;html=1;exitX=0;exitY=0.5;exitDx=0;exitDy=0;entryX=0.385;entryY=-0.043;entryDx=0;entryDy=0;entryPerimeter=0;" parent="WIyWlLk6GJQsqaUBKTNV-1" source="pA0bBhv7EQgGePk6_dJT-11" target="pA0bBhv7EQgGePk6_dJT-123" edge="1">
          <mxGeometry relative="1" as="geometry">
            <Array as="points">
              <mxPoint x="-235" y="600" />
              <mxPoint x="-351" y="600" />
            </Array>
          </mxGeometry>
        </mxCell>
        <mxCell id="pA0bBhv7EQgGePk6_dJT-180" value="0..*" style="text;html=1;align=center;verticalAlign=middle;whiteSpace=wrap;rounded=0;labelBackgroundColor=none;" parent="WIyWlLk6GJQsqaUBKTNV-1" vertex="1">
          <mxGeometry x="-485" y="806" width="50" height="24" as="geometry" />
        </mxCell>
        <mxCell id="pA0bBhv7EQgGePk6_dJT-181" value="1..1" style="text;html=1;align=center;verticalAlign=middle;whiteSpace=wrap;rounded=0;labelBackgroundColor=none;" parent="WIyWlLk6GJQsqaUBKTNV-1" vertex="1">
          <mxGeometry x="110" y="806" width="60" height="30" as="geometry" />
        </mxCell>
        <mxCell id="pA0bBhv7EQgGePk6_dJT-182" style="edgeStyle=orthogonalEdgeStyle;rounded=0;orthogonalLoop=1;jettySize=auto;html=1;entryX=0.901;entryY=0.008;entryDx=0;entryDy=0;entryPerimeter=0;exitX=0.25;exitY=1;exitDx=0;exitDy=0;" parent="WIyWlLk6GJQsqaUBKTNV-1" source="pA0bBhv7EQgGePk6_dJT-184" target="pA0bBhv7EQgGePk6_dJT-153" edge="1">
          <mxGeometry relative="1" as="geometry">
            <mxPoint x="-530" y="370" as="sourcePoint" />
            <Array as="points">
              <mxPoint x="-502" y="350" />
            </Array>
          </mxGeometry>
        </mxCell>
        <mxCell id="pA0bBhv7EQgGePk6_dJT-183" value="0..*" style="text;html=1;align=center;verticalAlign=middle;whiteSpace=wrap;rounded=0;labelBackgroundColor=none;" parent="WIyWlLk6GJQsqaUBKTNV-1" vertex="1">
          <mxGeometry x="-560" y="570" width="60" height="30" as="geometry" />
        </mxCell>
        <mxCell id="pA0bBhv7EQgGePk6_dJT-184" value="0..1" style="text;html=1;align=center;verticalAlign=middle;whiteSpace=wrap;rounded=0;labelBackgroundColor=none;" parent="WIyWlLk6GJQsqaUBKTNV-1" vertex="1">
          <mxGeometry x="-560" y="320" width="60" height="30" as="geometry" />
        </mxCell>
        <mxCell id="2SU_q5rG7_fEcD5j5o02-39" value="DateRealization" style="swimlane;fontStyle=0;childLayout=stackLayout;horizontal=1;startSize=26;fillColor=none;horizontalStack=0;resizeParent=1;resizeParentMax=0;resizeLast=0;collapsible=1;marginBottom=0;whiteSpace=wrap;html=1;" parent="WIyWlLk6GJQsqaUBKTNV-1" vertex="1">
          <mxGeometry x="710" y="-180" width="220" height="104" as="geometry" />
        </mxCell>
        <mxCell id="2SU_q5rG7_fEcD5j5o02-40" value="+ Id: int &amp;lt;&amp;lt;+get&amp;gt;&amp;gt; &amp;lt;&amp;lt;+set&amp;gt;&amp;gt;" style="text;strokeColor=none;fillColor=none;align=left;verticalAlign=top;spacingLeft=4;spacingRight=4;overflow=hidden;rotatable=0;points=[[0,0.5],[1,0.5]];portConstraint=eastwest;whiteSpace=wrap;html=1;" parent="2SU_q5rG7_fEcD5j5o02-39" vertex="1">
          <mxGeometry y="26" width="220" height="26" as="geometry" />
        </mxCell>
        <mxCell id="2SU_q5rG7_fEcD5j5o02-41" value="+ Date: DateTime &amp;lt;&amp;lt;+get&amp;gt;&amp;gt; &amp;lt;&amp;lt;+set&amp;gt;&amp;gt;" style="text;strokeColor=none;fillColor=none;align=left;verticalAlign=top;spacingLeft=4;spacingRight=4;overflow=hidden;rotatable=0;points=[[0,0.5],[1,0.5]];portConstraint=eastwest;whiteSpace=wrap;html=1;" parent="2SU_q5rG7_fEcD5j5o02-39" vertex="1">
          <mxGeometry y="52" width="220" height="26" as="geometry" />
        </mxCell>
        <mxCell id="2SU_q5rG7_fEcD5j5o02-42" value="+ TourId: int &amp;lt;&amp;lt;+get&amp;gt;&amp;gt; &amp;lt;&amp;lt;+set&amp;gt;&amp;gt;" style="text;strokeColor=none;fillColor=none;align=left;verticalAlign=top;spacingLeft=4;spacingRight=4;overflow=hidden;rotatable=0;points=[[0,0.5],[1,0.5]];portConstraint=eastwest;whiteSpace=wrap;html=1;" parent="2SU_q5rG7_fEcD5j5o02-39" vertex="1">
          <mxGeometry y="78" width="220" height="26" as="geometry" />
        </mxCell>
        <mxCell id="2SU_q5rG7_fEcD5j5o02-43" value="Tour" style="swimlane;fontStyle=0;childLayout=stackLayout;horizontal=1;startSize=26;fillColor=none;horizontalStack=0;resizeParent=1;resizeParentMax=0;resizeLast=0;collapsible=1;marginBottom=0;whiteSpace=wrap;html=1;" parent="WIyWlLk6GJQsqaUBKTNV-1" vertex="1">
          <mxGeometry x="740" y="50" width="260" height="210" as="geometry" />
        </mxCell>
        <mxCell id="2SU_q5rG7_fEcD5j5o02-44" value="+ Id: int &amp;lt;&amp;lt;+get&amp;gt;&amp;gt; &amp;lt;&amp;lt;+set&amp;gt;&amp;gt;" style="text;strokeColor=none;fillColor=none;align=left;verticalAlign=top;spacingLeft=4;spacingRight=4;overflow=hidden;rotatable=0;points=[[0,0.5],[1,0.5]];portConstraint=eastwest;whiteSpace=wrap;html=1;" parent="2SU_q5rG7_fEcD5j5o02-43" vertex="1">
          <mxGeometry y="26" width="260" height="26" as="geometry" />
        </mxCell>
        <mxCell id="2SU_q5rG7_fEcD5j5o02-45" value="+ Name: string &amp;lt;&amp;lt;+get&amp;gt;&amp;gt; &amp;lt;&amp;lt;+set&amp;gt;&amp;gt;" style="text;strokeColor=none;fillColor=none;align=left;verticalAlign=top;spacingLeft=4;spacingRight=4;overflow=hidden;rotatable=0;points=[[0,0.5],[1,0.5]];portConstraint=eastwest;whiteSpace=wrap;html=1;" parent="2SU_q5rG7_fEcD5j5o02-43" vertex="1">
          <mxGeometry y="52" width="260" height="26" as="geometry" />
        </mxCell>
        <mxCell id="2SU_q5rG7_fEcD5j5o02-46" value="+ Description: string &amp;lt;&amp;lt;+get&amp;gt;&amp;gt; &amp;lt;&amp;lt;+set&amp;gt;&amp;gt;" style="text;strokeColor=none;fillColor=none;align=left;verticalAlign=top;spacingLeft=4;spacingRight=4;overflow=hidden;rotatable=0;points=[[0,0.5],[1,0.5]];portConstraint=eastwest;whiteSpace=wrap;html=1;" parent="2SU_q5rG7_fEcD5j5o02-43" vertex="1">
          <mxGeometry y="78" width="260" height="26" as="geometry" />
        </mxCell>
        <mxCell id="2SU_q5rG7_fEcD5j5o02-47" value="+ MaxGuests: int &amp;lt;&amp;lt;+get&amp;gt;&amp;gt; &amp;lt;&amp;lt;+set&amp;gt;&amp;gt;" style="text;strokeColor=none;fillColor=none;align=left;verticalAlign=top;spacingLeft=4;spacingRight=4;overflow=hidden;rotatable=0;points=[[0,0.5],[1,0.5]];portConstraint=eastwest;whiteSpace=wrap;html=1;" parent="2SU_q5rG7_fEcD5j5o02-43" vertex="1">
          <mxGeometry y="104" width="260" height="26" as="geometry" />
        </mxCell>
        <mxCell id="2SU_q5rG7_fEcD5j5o02-48" value="+ Duration: float &amp;lt;&amp;lt;+get&amp;gt;&amp;gt; &amp;lt;&amp;lt;+set&amp;gt;&amp;gt;" style="text;strokeColor=none;fillColor=none;align=left;verticalAlign=top;spacingLeft=4;spacingRight=4;overflow=hidden;rotatable=0;points=[[0,0.5],[1,0.5]];portConstraint=eastwest;whiteSpace=wrap;html=1;" parent="2SU_q5rG7_fEcD5j5o02-43" vertex="1">
          <mxGeometry y="130" width="260" height="80" as="geometry" />
        </mxCell>
        <mxCell id="2SU_q5rG7_fEcD5j5o02-52" value="TourInstance" style="swimlane;fontStyle=0;childLayout=stackLayout;horizontal=1;startSize=26;fillColor=none;horizontalStack=0;resizeParent=1;resizeParentMax=0;resizeLast=0;collapsible=1;marginBottom=0;whiteSpace=wrap;html=1;" parent="WIyWlLk6GJQsqaUBKTNV-1" vertex="1">
          <mxGeometry x="740" y="416" width="270" height="182" as="geometry" />
        </mxCell>
        <mxCell id="2SU_q5rG7_fEcD5j5o02-53" value="+ Id: int &amp;lt;&amp;lt;+get&amp;gt;&amp;gt; &amp;lt;&amp;lt;+set&amp;gt;&amp;gt;" style="text;strokeColor=none;fillColor=none;align=left;verticalAlign=top;spacingLeft=4;spacingRight=4;overflow=hidden;rotatable=0;points=[[0,0.5],[1,0.5]];portConstraint=eastwest;whiteSpace=wrap;html=1;" parent="2SU_q5rG7_fEcD5j5o02-52" vertex="1">
          <mxGeometry y="26" width="270" height="26" as="geometry" />
        </mxCell>
        <mxCell id="2SU_q5rG7_fEcD5j5o02-54" value="+ TourId: int &amp;lt;&amp;lt;+get&amp;gt;&amp;gt; &amp;lt;&amp;lt;+set&amp;gt;&amp;gt;" style="text;strokeColor=none;fillColor=none;align=left;verticalAlign=top;spacingLeft=4;spacingRight=4;overflow=hidden;rotatable=0;points=[[0,0.5],[1,0.5]];portConstraint=eastwest;whiteSpace=wrap;html=1;" parent="2SU_q5rG7_fEcD5j5o02-52" vertex="1">
          <mxGeometry y="52" width="270" height="26" as="geometry" />
        </mxCell>
        <mxCell id="2SU_q5rG7_fEcD5j5o02-55" value="+ AvailableSlots: int &amp;lt;&amp;lt;+get&amp;gt;&amp;gt; &amp;lt;&amp;lt;+set&amp;gt;&amp;gt;" style="text;strokeColor=none;fillColor=none;align=left;verticalAlign=top;spacingLeft=4;spacingRight=4;overflow=hidden;rotatable=0;points=[[0,0.5],[1,0.5]];portConstraint=eastwest;whiteSpace=wrap;html=1;" parent="2SU_q5rG7_fEcD5j5o02-52" vertex="1">
          <mxGeometry y="78" width="270" height="26" as="geometry" />
        </mxCell>
        <mxCell id="2SU_q5rG7_fEcD5j5o02-56" value="+ StartTime: DateTime &amp;lt;&amp;lt;+get&amp;gt;&amp;gt; &amp;lt;&amp;lt;+set&amp;gt;&amp;gt;" style="text;strokeColor=none;fillColor=none;align=left;verticalAlign=top;spacingLeft=4;spacingRight=4;overflow=hidden;rotatable=0;points=[[0,0.5],[1,0.5]];portConstraint=eastwest;whiteSpace=wrap;html=1;" parent="2SU_q5rG7_fEcD5j5o02-52" vertex="1">
          <mxGeometry y="104" width="270" height="26" as="geometry" />
        </mxCell>
        <mxCell id="2SU_q5rG7_fEcD5j5o02-57" value="+ State: TourInstanceState &amp;lt;&amp;lt;+get&amp;gt;&amp;gt; &amp;lt;&amp;lt;+set&amp;gt;&amp;gt;" style="text;strokeColor=none;fillColor=none;align=left;verticalAlign=top;spacingLeft=4;spacingRight=4;overflow=hidden;rotatable=0;points=[[0,0.5],[1,0.5]];portConstraint=eastwest;whiteSpace=wrap;html=1;" parent="2SU_q5rG7_fEcD5j5o02-52" vertex="1">
          <mxGeometry y="130" width="270" height="26" as="geometry" />
        </mxCell>
        <mxCell id="2SU_q5rG7_fEcD5j5o02-58" value="+ GuideId: int &amp;lt;&amp;lt;+get&amp;gt;&amp;gt; &amp;lt;&amp;lt;+set&amp;gt;&amp;gt;" style="text;strokeColor=none;fillColor=none;align=left;verticalAlign=top;spacingLeft=4;spacingRight=4;overflow=hidden;rotatable=0;points=[[0,0.5],[1,0.5]];portConstraint=eastwest;whiteSpace=wrap;html=1;" parent="2SU_q5rG7_fEcD5j5o02-52" vertex="1">
          <mxGeometry y="156" width="270" height="26" as="geometry" />
        </mxCell>
        <mxCell id="2SU_q5rG7_fEcD5j5o02-59" value="&amp;lt;&amp;lt;enum&amp;gt;&amp;gt;&lt;br&gt;TourInstanceState" style="swimlane;fontStyle=0;childLayout=stackLayout;horizontal=1;startSize=26;fillColor=none;horizontalStack=0;resizeParent=1;resizeParentMax=0;resizeLast=0;collapsible=1;marginBottom=0;whiteSpace=wrap;html=1;" parent="WIyWlLk6GJQsqaUBKTNV-1" vertex="1">
          <mxGeometry x="805" y="610" width="140" height="130" as="geometry" />
        </mxCell>
        <mxCell id="2SU_q5rG7_fEcD5j5o02-60" value="Inactive" style="text;strokeColor=none;fillColor=none;align=left;verticalAlign=top;spacingLeft=4;spacingRight=4;overflow=hidden;rotatable=0;points=[[0,0.5],[1,0.5]];portConstraint=eastwest;whiteSpace=wrap;html=1;" parent="2SU_q5rG7_fEcD5j5o02-59" vertex="1">
          <mxGeometry y="26" width="140" height="26" as="geometry" />
        </mxCell>
        <mxCell id="2SU_q5rG7_fEcD5j5o02-61" value="Active" style="text;strokeColor=none;fillColor=none;align=left;verticalAlign=top;spacingLeft=4;spacingRight=4;overflow=hidden;rotatable=0;points=[[0,0.5],[1,0.5]];portConstraint=eastwest;whiteSpace=wrap;html=1;" parent="2SU_q5rG7_fEcD5j5o02-59" vertex="1">
          <mxGeometry y="52" width="140" height="26" as="geometry" />
        </mxCell>
        <mxCell id="2SU_q5rG7_fEcD5j5o02-62" value="Finished" style="text;strokeColor=none;fillColor=none;align=left;verticalAlign=top;spacingLeft=4;spacingRight=4;overflow=hidden;rotatable=0;points=[[0,0.5],[1,0.5]];portConstraint=eastwest;whiteSpace=wrap;html=1;" parent="2SU_q5rG7_fEcD5j5o02-59" vertex="1">
          <mxGeometry y="78" width="140" height="26" as="geometry" />
        </mxCell>
        <mxCell id="2SU_q5rG7_fEcD5j5o02-63" value="Cancelled" style="text;strokeColor=none;fillColor=none;align=left;verticalAlign=top;spacingLeft=4;spacingRight=4;overflow=hidden;rotatable=0;points=[[0,0.5],[1,0.5]];portConstraint=eastwest;whiteSpace=wrap;html=1;" parent="2SU_q5rG7_fEcD5j5o02-59" vertex="1">
          <mxGeometry y="104" width="140" height="26" as="geometry" />
        </mxCell>
        <mxCell id="2SU_q5rG7_fEcD5j5o02-66" value="&lt;span style=&quot;font-weight: 400;&quot;&gt;YearRequestStatistic&lt;/span&gt;" style="swimlane;fontStyle=1;align=center;verticalAlign=top;childLayout=stackLayout;horizontal=1;startSize=26;horizontalStack=0;resizeParent=1;resizeParentMax=0;resizeLast=0;collapsible=1;marginBottom=0;whiteSpace=wrap;html=1;" parent="WIyWlLk6GJQsqaUBKTNV-1" vertex="1">
          <mxGeometry x="1060" y="138" width="450" height="162" as="geometry" />
        </mxCell>
        <mxCell id="2SU_q5rG7_fEcD5j5o02-67" value="- _year: int" style="text;strokeColor=none;fillColor=none;align=left;verticalAlign=top;spacingLeft=4;spacingRight=4;overflow=hidden;rotatable=0;points=[[0,0.5],[1,0.5]];portConstraint=eastwest;whiteSpace=wrap;html=1;" parent="2SU_q5rG7_fEcD5j5o02-66" vertex="1">
          <mxGeometry y="26" width="450" height="26" as="geometry" />
        </mxCell>
        <mxCell id="2SU_q5rG7_fEcD5j5o02-68" value="+ Year: int &amp;lt;&amp;lt;+get&amp;gt;&amp;gt; &amp;lt;&amp;lt;+set&amp;gt;&amp;gt;" style="text;strokeColor=none;fillColor=none;align=left;verticalAlign=top;spacingLeft=4;spacingRight=4;overflow=hidden;rotatable=0;points=[[0,0.5],[1,0.5]];portConstraint=eastwest;whiteSpace=wrap;html=1;" parent="2SU_q5rG7_fEcD5j5o02-66" vertex="1">
          <mxGeometry y="52" width="450" height="26" as="geometry" />
        </mxCell>
        <mxCell id="2SU_q5rG7_fEcD5j5o02-69" value="- _number: int" style="text;strokeColor=none;fillColor=none;align=left;verticalAlign=top;spacingLeft=4;spacingRight=4;overflow=hidden;rotatable=0;points=[[0,0.5],[1,0.5]];portConstraint=eastwest;whiteSpace=wrap;html=1;" parent="2SU_q5rG7_fEcD5j5o02-66" vertex="1">
          <mxGeometry y="78" width="450" height="24" as="geometry" />
        </mxCell>
        <mxCell id="2SU_q5rG7_fEcD5j5o02-70" value="+ Number: int &amp;lt;&amp;lt;+get&amp;gt;&amp;gt; &amp;lt;&amp;lt;+set&amp;gt;&amp;gt;" style="text;strokeColor=none;fillColor=none;align=left;verticalAlign=top;spacingLeft=4;spacingRight=4;overflow=hidden;rotatable=0;points=[[0,0.5],[1,0.5]];portConstraint=eastwest;whiteSpace=wrap;html=1;" parent="2SU_q5rG7_fEcD5j5o02-66" vertex="1">
          <mxGeometry y="102" width="450" height="26" as="geometry" />
        </mxCell>
        <mxCell id="2SU_q5rG7_fEcD5j5o02-71" value="" style="line;strokeWidth=1;fillColor=none;align=left;verticalAlign=middle;spacingTop=-1;spacingLeft=3;spacingRight=3;rotatable=0;labelPosition=right;points=[];portConstraint=eastwest;strokeColor=inherit;" parent="2SU_q5rG7_fEcD5j5o02-66" vertex="1">
          <mxGeometry y="128" width="450" height="8" as="geometry" />
        </mxCell>
        <mxCell id="2SU_q5rG7_fEcD5j5o02-72" value="-&amp;nbsp;OnPropertyChanged([CallerMemberName] string propertyName = null): void&lt;div&gt;&lt;br&gt;&lt;/div&gt;" style="text;strokeColor=none;fillColor=none;align=left;verticalAlign=top;spacingLeft=4;spacingRight=4;overflow=hidden;rotatable=0;points=[[0,0.5],[1,0.5]];portConstraint=eastwest;whiteSpace=wrap;html=1;" parent="2SU_q5rG7_fEcD5j5o02-66" vertex="1">
          <mxGeometry y="136" width="450" height="26" as="geometry" />
        </mxCell>
        <mxCell id="2SU_q5rG7_fEcD5j5o02-73" value="&lt;span style=&quot;font-weight: 400;&quot;&gt;MonthRequestStatistic&lt;/span&gt;" style="swimlane;fontStyle=1;align=center;verticalAlign=top;childLayout=stackLayout;horizontal=1;startSize=26;horizontalStack=0;resizeParent=1;resizeParentMax=0;resizeLast=0;collapsible=1;marginBottom=0;whiteSpace=wrap;html=1;" parent="WIyWlLk6GJQsqaUBKTNV-1" vertex="1">
          <mxGeometry x="1060" y="340" width="450" height="162" as="geometry" />
        </mxCell>
        <mxCell id="2SU_q5rG7_fEcD5j5o02-74" value="- _month: string" style="text;strokeColor=none;fillColor=none;align=left;verticalAlign=top;spacingLeft=4;spacingRight=4;overflow=hidden;rotatable=0;points=[[0,0.5],[1,0.5]];portConstraint=eastwest;whiteSpace=wrap;html=1;" parent="2SU_q5rG7_fEcD5j5o02-73" vertex="1">
          <mxGeometry y="26" width="450" height="26" as="geometry" />
        </mxCell>
        <mxCell id="2SU_q5rG7_fEcD5j5o02-75" value="+ Month: string &amp;lt;&amp;lt;+get&amp;gt;&amp;gt; &amp;lt;&amp;lt;+set&amp;gt;&amp;gt;" style="text;strokeColor=none;fillColor=none;align=left;verticalAlign=top;spacingLeft=4;spacingRight=4;overflow=hidden;rotatable=0;points=[[0,0.5],[1,0.5]];portConstraint=eastwest;whiteSpace=wrap;html=1;" parent="2SU_q5rG7_fEcD5j5o02-73" vertex="1">
          <mxGeometry y="52" width="450" height="26" as="geometry" />
        </mxCell>
        <mxCell id="2SU_q5rG7_fEcD5j5o02-76" value="- _number: int" style="text;strokeColor=none;fillColor=none;align=left;verticalAlign=top;spacingLeft=4;spacingRight=4;overflow=hidden;rotatable=0;points=[[0,0.5],[1,0.5]];portConstraint=eastwest;whiteSpace=wrap;html=1;" parent="2SU_q5rG7_fEcD5j5o02-73" vertex="1">
          <mxGeometry y="78" width="450" height="24" as="geometry" />
        </mxCell>
        <mxCell id="2SU_q5rG7_fEcD5j5o02-77" value="+ Number: int &amp;lt;&amp;lt;+get&amp;gt;&amp;gt; &amp;lt;&amp;lt;+set&amp;gt;&amp;gt;" style="text;strokeColor=none;fillColor=none;align=left;verticalAlign=top;spacingLeft=4;spacingRight=4;overflow=hidden;rotatable=0;points=[[0,0.5],[1,0.5]];portConstraint=eastwest;whiteSpace=wrap;html=1;" parent="2SU_q5rG7_fEcD5j5o02-73" vertex="1">
          <mxGeometry y="102" width="450" height="26" as="geometry" />
        </mxCell>
        <mxCell id="2SU_q5rG7_fEcD5j5o02-78" value="" style="line;strokeWidth=1;fillColor=none;align=left;verticalAlign=middle;spacingTop=-1;spacingLeft=3;spacingRight=3;rotatable=0;labelPosition=right;points=[];portConstraint=eastwest;strokeColor=inherit;" parent="2SU_q5rG7_fEcD5j5o02-73" vertex="1">
          <mxGeometry y="128" width="450" height="8" as="geometry" />
        </mxCell>
        <mxCell id="2SU_q5rG7_fEcD5j5o02-79" value="-&amp;nbsp;OnPropertyChanged([CallerMemberName] string propertyName = null): void&lt;div&gt;&lt;br&gt;&lt;/div&gt;" style="text;strokeColor=none;fillColor=none;align=left;verticalAlign=top;spacingLeft=4;spacingRight=4;overflow=hidden;rotatable=0;points=[[0,0.5],[1,0.5]];portConstraint=eastwest;whiteSpace=wrap;html=1;" parent="2SU_q5rG7_fEcD5j5o02-73" vertex="1">
          <mxGeometry y="136" width="450" height="26" as="geometry" />
        </mxCell>
        <mxCell id="2SU_q5rG7_fEcD5j5o02-80" value="" style="endArrow=open;html=1;endSize=12;startArrow=diamondThin;startSize=14;startFill=1;edgeStyle=orthogonalEdgeStyle;align=left;verticalAlign=bottom;rounded=0;entryX=0.397;entryY=1.026;entryDx=0;entryDy=0;entryPerimeter=0;" parent="WIyWlLk6GJQsqaUBKTNV-1" target="2SU_q5rG7_fEcD5j5o02-42" edge="1">
          <mxGeometry x="-0.9195" y="-20" relative="1" as="geometry">
            <mxPoint x="780" y="50" as="sourcePoint" />
            <mxPoint x="698" y="-110" as="targetPoint" />
            <Array as="points">
              <mxPoint x="780" y="20" />
            </Array>
            <mxPoint as="offset" />
          </mxGeometry>
        </mxCell>
        <mxCell id="2SU_q5rG7_fEcD5j5o02-81" value="1..1" style="edgeLabel;html=1;align=center;verticalAlign=middle;resizable=0;points=[];" parent="WIyWlLk6GJQsqaUBKTNV-1" vertex="1" connectable="0">
          <mxGeometry x="802" y="34.75862068965512" as="geometry" />
        </mxCell>
        <mxCell id="2SU_q5rG7_fEcD5j5o02-82" value="1..*" style="edgeLabel;resizable=0;html=1;align=right;verticalAlign=top;" parent="WIyWlLk6GJQsqaUBKTNV-1" connectable="0" vertex="1">
          <mxGeometry x="819.9999182595711" y="-70.00318273750176" as="geometry" />
        </mxCell>
        <mxCell id="2SU_q5rG7_fEcD5j5o02-83" value="1..1" style="endArrow=open;html=1;endSize=12;startArrow=diamondThin;startSize=14;startFill=1;edgeStyle=orthogonalEdgeStyle;align=left;verticalAlign=bottom;rounded=0;entryX=0.113;entryY=-0.004;entryDx=0;entryDy=0;entryPerimeter=0;exitX=0.144;exitY=1.023;exitDx=0;exitDy=0;exitPerimeter=0;" parent="WIyWlLk6GJQsqaUBKTNV-1" target="2SU_q5rG7_fEcD5j5o02-52" edge="1">
          <mxGeometry x="-0.5899" y="11" relative="1" as="geometry">
            <mxPoint x="777.44" y="258.5980000000004" as="sourcePoint" />
            <mxPoint x="780" y="410" as="targetPoint" />
            <Array as="points">
              <mxPoint x="777" y="370" />
              <mxPoint x="770" y="370" />
              <mxPoint x="770" y="415" />
            </Array>
            <mxPoint as="offset" />
          </mxGeometry>
        </mxCell>
        <mxCell id="2SU_q5rG7_fEcD5j5o02-84" value="1..*" style="text;html=1;align=center;verticalAlign=middle;resizable=0;points=[];autosize=1;strokeColor=none;fillColor=none;" parent="WIyWlLk6GJQsqaUBKTNV-1" vertex="1">
          <mxGeometry x="765" y="370" width="40" height="30" as="geometry" />
        </mxCell>
        <mxCell id="2SU_q5rG7_fEcD5j5o02-87" value="" style="endArrow=open;html=1;endSize=12;startArrow=diamondThin;startSize=14;startFill=0;edgeStyle=orthogonalEdgeStyle;rounded=0;exitX=0;exitY=-0.154;exitDx=0;exitDy=0;exitPerimeter=0;entryX=0.5;entryY=0;entryDx=0;entryDy=0;" parent="WIyWlLk6GJQsqaUBKTNV-1" source="2SU_q5rG7_fEcD5j5o02-47" target="pA0bBhv7EQgGePk6_dJT-43" edge="1">
          <mxGeometry relative="1" as="geometry">
            <mxPoint x="605.5" y="330" as="sourcePoint" />
            <mxPoint x="530" y="410" as="targetPoint" />
            <Array as="points">
              <mxPoint x="540" y="150" />
              <mxPoint x="540" y="380" />
              <mxPoint x="524" y="380" />
            </Array>
          </mxGeometry>
        </mxCell>
        <mxCell id="2SU_q5rG7_fEcD5j5o02-88" value="1..1" style="edgeLabel;resizable=0;html=1;align=right;verticalAlign=top;" parent="2SU_q5rG7_fEcD5j5o02-87" connectable="0" vertex="1">
          <mxGeometry x="1" relative="1" as="geometry">
            <mxPoint x="26" y="-40" as="offset" />
          </mxGeometry>
        </mxCell>
        <mxCell id="2SU_q5rG7_fEcD5j5o02-89" value="0..*" style="edgeLabel;html=1;align=center;verticalAlign=middle;resizable=0;points=[];" parent="2SU_q5rG7_fEcD5j5o02-87" vertex="1" connectable="0">
          <mxGeometry x="-0.8593" y="1" relative="1" as="geometry">
            <mxPoint x="13" y="-21" as="offset" />
          </mxGeometry>
        </mxCell>
        <mxCell id="2SU_q5rG7_fEcD5j5o02-90" value="" style="endArrow=open;html=1;endSize=12;startArrow=diamondThin;startSize=14;startFill=0;edgeStyle=orthogonalEdgeStyle;rounded=0;exitX=0;exitY=-0.154;exitDx=0;exitDy=0;exitPerimeter=0;entryX=0.75;entryY=0;entryDx=0;entryDy=0;" parent="WIyWlLk6GJQsqaUBKTNV-1" target="pA0bBhv7EQgGePk6_dJT-48" edge="1">
          <mxGeometry relative="1" as="geometry">
            <mxPoint x="740" y="200" as="sourcePoint" />
            <mxPoint x="524" y="470" as="targetPoint" />
            <Array as="points">
              <mxPoint x="700" y="200" />
              <mxPoint x="700" y="350" />
              <mxPoint x="550" y="350" />
              <mxPoint x="550" y="340" />
              <mxPoint x="530" y="340" />
              <mxPoint x="530" y="350" />
              <mxPoint x="450" y="350" />
              <mxPoint x="450" y="340" />
              <mxPoint x="430" y="340" />
              <mxPoint x="430" y="350" />
              <mxPoint x="310" y="350" />
            </Array>
          </mxGeometry>
        </mxCell>
        <mxCell id="2SU_q5rG7_fEcD5j5o02-91" value="1..1" style="edgeLabel;resizable=0;html=1;align=right;verticalAlign=top;" parent="2SU_q5rG7_fEcD5j5o02-90" connectable="0" vertex="1">
          <mxGeometry x="1" relative="1" as="geometry">
            <mxPoint x="30" y="-30" as="offset" />
          </mxGeometry>
        </mxCell>
        <mxCell id="2SU_q5rG7_fEcD5j5o02-92" value="0..*" style="edgeLabel;html=1;align=center;verticalAlign=middle;resizable=0;points=[];" parent="2SU_q5rG7_fEcD5j5o02-90" vertex="1" connectable="0">
          <mxGeometry x="-0.8593" y="1" relative="1" as="geometry">
            <mxPoint x="13" y="-21" as="offset" />
          </mxGeometry>
        </mxCell>
        <mxCell id="vVKcExqLFnOQFm7sWjbY-186" value="Vehicle" style="swimlane;fontStyle=0;childLayout=stackLayout;horizontal=1;startSize=26;fillColor=none;horizontalStack=0;resizeParent=1;resizeParentMax=0;resizeLast=0;collapsible=1;marginBottom=0;whiteSpace=wrap;html=1;" parent="WIyWlLk6GJQsqaUBKTNV-1" vertex="1">
          <mxGeometry x="-800" y="940" width="350" height="104" as="geometry" />
        </mxCell>
        <mxCell id="vVKcExqLFnOQFm7sWjbY-187" value="+ Id: int &amp;lt;&amp;lt;+get&amp;gt;&amp;gt; &amp;lt;&amp;lt;+set&amp;gt;&amp;gt;" style="text;strokeColor=none;fillColor=none;align=left;verticalAlign=top;spacingLeft=4;spacingRight=4;overflow=hidden;rotatable=0;points=[[0,0.5],[1,0.5]];portConstraint=eastwest;whiteSpace=wrap;html=1;" parent="vVKcExqLFnOQFm7sWjbY-186" vertex="1">
          <mxGeometry y="26" width="350" height="26" as="geometry" />
        </mxCell>
        <mxCell id="vVKcExqLFnOQFm7sWjbY-189" value="+ Capacity: int &amp;lt;&amp;lt;+get&amp;gt;&amp;gt; &amp;lt;&amp;lt;+set&amp;gt;&amp;gt;" style="text;strokeColor=none;fillColor=none;align=left;verticalAlign=top;spacingLeft=4;spacingRight=4;overflow=hidden;rotatable=0;points=[[0,0.5],[1,0.5]];portConstraint=eastwest;whiteSpace=wrap;html=1;" parent="vVKcExqLFnOQFm7sWjbY-186" vertex="1">
          <mxGeometry y="52" width="350" height="26" as="geometry" />
        </mxCell>
        <mxCell id="vVKcExqLFnOQFm7sWjbY-191" value="+ ImagePaths: string &amp;lt;&amp;lt;+get&amp;gt;&amp;gt; &amp;lt;&amp;lt;+set&amp;gt;&amp;gt;" style="text;strokeColor=none;fillColor=none;align=left;verticalAlign=top;spacingLeft=4;spacingRight=4;overflow=hidden;rotatable=0;points=[[0,0.5],[1,0.5]];portConstraint=eastwest;whiteSpace=wrap;html=1;" parent="vVKcExqLFnOQFm7sWjbY-186" vertex="1">
          <mxGeometry y="78" width="350" height="26" as="geometry" />
        </mxCell>
        <mxCell id="vVKcExqLFnOQFm7sWjbY-194" value="" style="endArrow=classic;html=1;rounded=0;entryX=1;entryY=0;entryDx=0;entryDy=0;edgeStyle=elbowEdgeStyle;" parent="WIyWlLk6GJQsqaUBKTNV-1" target="vVKcExqLFnOQFm7sWjbY-195" edge="1">
          <mxGeometry width="50" height="50" relative="1" as="geometry">
            <mxPoint x="-800" y="937" as="sourcePoint" />
            <mxPoint x="-581" y="53" as="targetPoint" />
            <Array as="points">
              <mxPoint x="-800" y="480" />
            </Array>
          </mxGeometry>
        </mxCell>
        <mxCell id="vVKcExqLFnOQFm7sWjbY-195" value="1..1" style="text;html=1;align=center;verticalAlign=middle;whiteSpace=wrap;rounded=0;" parent="WIyWlLk6GJQsqaUBKTNV-1" vertex="1">
          <mxGeometry x="-640" y="80" width="60" height="30" as="geometry" />
        </mxCell>
        <mxCell id="vVKcExqLFnOQFm7sWjbY-196" value="0..*" style="text;html=1;align=center;verticalAlign=middle;whiteSpace=wrap;rounded=0;" parent="WIyWlLk6GJQsqaUBKTNV-1" vertex="1">
          <mxGeometry x="-810" y="910" width="60" height="30" as="geometry" />
        </mxCell>
        <mxCell id="vVKcExqLFnOQFm7sWjbY-198" value="0..*" style="text;html=1;align=center;verticalAlign=middle;whiteSpace=wrap;rounded=0;" parent="WIyWlLk6GJQsqaUBKTNV-1" vertex="1">
          <mxGeometry x="-450" y="1000" width="60" height="30" as="geometry" />
        </mxCell>
        <mxCell id="vVKcExqLFnOQFm7sWjbY-202" value="1..*" style="text;html=1;align=center;verticalAlign=middle;whiteSpace=wrap;rounded=0;" parent="WIyWlLk6GJQsqaUBKTNV-1" vertex="1">
          <mxGeometry x="210" y="511" width="60" height="30" as="geometry" />
        </mxCell>
        <mxCell id="vVKcExqLFnOQFm7sWjbY-203" value="" style="endArrow=classic;html=1;rounded=0;edgeStyle=orthogonalEdgeStyle;entryX=0.938;entryY=1.016;entryDx=0;entryDy=0;entryPerimeter=0;" parent="WIyWlLk6GJQsqaUBKTNV-1" source="vVKcExqLFnOQFm7sWjbY-191" target="pA0bBhv7EQgGePk6_dJT-46" edge="1">
          <mxGeometry width="50" height="50" relative="1" as="geometry">
            <mxPoint x="-310" y="1109" as="sourcePoint" />
            <mxPoint x="620" y="610" as="targetPoint" />
            <Array as="points">
              <mxPoint x="-550" y="1093" />
              <mxPoint x="620" y="1093" />
            </Array>
          </mxGeometry>
        </mxCell>
        <mxCell id="vVKcExqLFnOQFm7sWjbY-204" value="0..*" style="text;html=1;align=center;verticalAlign=middle;whiteSpace=wrap;rounded=0;" parent="WIyWlLk6GJQsqaUBKTNV-1" vertex="1">
          <mxGeometry x="-550" y="1044" width="60" height="30" as="geometry" />
        </mxCell>
        <mxCell id="vVKcExqLFnOQFm7sWjbY-197" value="" style="endArrow=classic;html=1;rounded=0;entryX=0.5;entryY=1;entryDx=0;entryDy=0;edgeStyle=orthogonalEdgeStyle;exitX=0;exitY=1;exitDx=0;exitDy=0;" parent="WIyWlLk6GJQsqaUBKTNV-1" source="vVKcExqLFnOQFm7sWjbY-198" target="pA0bBhv7EQgGePk6_dJT-48" edge="1">
          <mxGeometry width="50" height="50" relative="1" as="geometry">
            <mxPoint x="-440" y="1030" as="sourcePoint" />
            <mxPoint x="-410" y="1010" as="targetPoint" />
            <Array as="points">
              <mxPoint x="90" y="1031" />
              <mxPoint x="90" y="540" />
              <mxPoint x="260" y="540" />
            </Array>
          </mxGeometry>
        </mxCell>
        <mxCell id="vVKcExqLFnOQFm7sWjbY-208" value="1..*" style="text;html=1;align=center;verticalAlign=middle;whiteSpace=wrap;rounded=0;" parent="WIyWlLk6GJQsqaUBKTNV-1" vertex="1">
          <mxGeometry x="560" y="531" width="60" height="30" as="geometry" />
        </mxCell>
        <mxCell id="vVKcExqLFnOQFm7sWjbY-213" value="DriveDriven" style="swimlane;fontStyle=0;childLayout=stackLayout;horizontal=1;startSize=26;fillColor=none;horizontalStack=0;resizeParent=1;resizeParentMax=0;resizeLast=0;collapsible=1;marginBottom=0;whiteSpace=wrap;html=1;" parent="WIyWlLk6GJQsqaUBKTNV-1" vertex="1">
          <mxGeometry x="-770" y="444" width="250" height="78" as="geometry" />
        </mxCell>
        <mxCell id="vVKcExqLFnOQFm7sWjbY-215" value="+ Duration: TimeSpan &amp;lt;&amp;lt;+get&amp;gt;&amp;gt; &amp;lt;&amp;lt;+set&amp;gt;&amp;gt;" style="text;strokeColor=none;fillColor=none;align=left;verticalAlign=top;spacingLeft=4;spacingRight=4;overflow=hidden;rotatable=0;points=[[0,0.5],[1,0.5]];portConstraint=eastwest;whiteSpace=wrap;html=1;" parent="vVKcExqLFnOQFm7sWjbY-213" vertex="1">
          <mxGeometry y="26" width="250" height="26" as="geometry" />
        </mxCell>
        <mxCell id="vVKcExqLFnOQFm7sWjbY-216" value="+ Price: int &amp;lt;&amp;lt;+get&amp;gt;&amp;gt; &amp;lt;&amp;lt;+set&amp;gt;&amp;gt;" style="text;strokeColor=none;fillColor=none;align=left;verticalAlign=top;spacingLeft=4;spacingRight=4;overflow=hidden;rotatable=0;points=[[0,0.5],[1,0.5]];portConstraint=eastwest;whiteSpace=wrap;html=1;" parent="vVKcExqLFnOQFm7sWjbY-213" vertex="1">
          <mxGeometry y="52" width="250" height="26" as="geometry" />
        </mxCell>
        <mxCell id="vVKcExqLFnOQFm7sWjbY-220" value="" style="endArrow=classic;html=1;rounded=0;exitX=0.569;exitY=0.941;exitDx=0;exitDy=0;exitPerimeter=0;" parent="WIyWlLk6GJQsqaUBKTNV-1" source="vVKcExqLFnOQFm7sWjbY-216" edge="1">
          <mxGeometry width="50" height="50" relative="1" as="geometry">
            <mxPoint x="-626" y="550" as="sourcePoint" />
            <mxPoint x="-626" y="600" as="targetPoint" />
          </mxGeometry>
        </mxCell>
        <mxCell id="vVKcExqLFnOQFm7sWjbY-222" value="1..1" style="text;html=1;align=center;verticalAlign=middle;whiteSpace=wrap;rounded=0;" parent="WIyWlLk6GJQsqaUBKTNV-1" vertex="1">
          <mxGeometry x="-680" y="570" width="60" height="30" as="geometry" />
        </mxCell>
        <mxCell id="vVKcExqLFnOQFm7sWjbY-223" value="0..1" style="text;html=1;align=center;verticalAlign=middle;whiteSpace=wrap;rounded=0;" parent="WIyWlLk6GJQsqaUBKTNV-1" vertex="1">
          <mxGeometry x="-630" y="524" width="60" height="28" as="geometry" />
        </mxCell>
        <mxCell id="vVKcExqLFnOQFm7sWjbY-224" value="DriveNotification" style="swimlane;fontStyle=0;childLayout=stackLayout;horizontal=1;startSize=26;fillColor=none;horizontalStack=0;resizeParent=1;resizeParentMax=0;resizeLast=0;collapsible=1;marginBottom=0;whiteSpace=wrap;html=1;" parent="WIyWlLk6GJQsqaUBKTNV-1" vertex="1">
          <mxGeometry x="1210" y="910" width="350" height="104" as="geometry" />
        </mxCell>
        <mxCell id="vVKcExqLFnOQFm7sWjbY-225" value="+ Id: int &amp;lt;&amp;lt;+get&amp;gt;&amp;gt; &amp;lt;&amp;lt;+set&amp;gt;&amp;gt;" style="text;strokeColor=none;fillColor=none;align=left;verticalAlign=top;spacingLeft=4;spacingRight=4;overflow=hidden;rotatable=0;points=[[0,0.5],[1,0.5]];portConstraint=eastwest;whiteSpace=wrap;html=1;" parent="vVKcExqLFnOQFm7sWjbY-224" vertex="1">
          <mxGeometry y="26" width="350" height="26" as="geometry" />
        </mxCell>
        <mxCell id="vVKcExqLFnOQFm7sWjbY-227" value="+ Caption: string &amp;lt;&amp;lt;+get&amp;gt;&amp;gt; &amp;lt;&amp;lt;+set&amp;gt;&amp;gt;" style="text;strokeColor=none;fillColor=none;align=left;verticalAlign=top;spacingLeft=4;spacingRight=4;overflow=hidden;rotatable=0;points=[[0,0.5],[1,0.5]];portConstraint=eastwest;whiteSpace=wrap;html=1;" parent="vVKcExqLFnOQFm7sWjbY-224" vertex="1">
          <mxGeometry y="52" width="350" height="26" as="geometry" />
        </mxCell>
        <mxCell id="vVKcExqLFnOQFm7sWjbY-228" value="+ Text: string &amp;lt;&amp;lt;+get&amp;gt;&amp;gt; &amp;lt;&amp;lt;+set&amp;gt;&amp;gt;" style="text;strokeColor=none;fillColor=none;align=left;verticalAlign=top;spacingLeft=4;spacingRight=4;overflow=hidden;rotatable=0;points=[[0,0.5],[1,0.5]];portConstraint=eastwest;whiteSpace=wrap;html=1;" parent="vVKcExqLFnOQFm7sWjbY-224" vertex="1">
          <mxGeometry y="78" width="350" height="26" as="geometry" />
        </mxCell>
        <mxCell id="vVKcExqLFnOQFm7sWjbY-229" value="FastDrive" style="swimlane;fontStyle=0;childLayout=stackLayout;horizontal=1;startSize=26;fillColor=none;horizontalStack=0;resizeParent=1;resizeParentMax=0;resizeLast=0;collapsible=1;marginBottom=0;whiteSpace=wrap;html=1;" parent="WIyWlLk6GJQsqaUBKTNV-1" vertex="1">
          <mxGeometry x="730" y="836" width="360" height="130" as="geometry" />
        </mxCell>
        <mxCell id="vVKcExqLFnOQFm7sWjbY-230" value="+ Id: int &amp;lt;&amp;lt;+get&amp;gt;&amp;gt; &amp;lt;&amp;lt;-set&amp;gt;&amp;gt;" style="text;strokeColor=none;fillColor=none;align=left;verticalAlign=top;spacingLeft=4;spacingRight=4;overflow=hidden;rotatable=0;points=[[0,0.5],[1,0.5]];portConstraint=eastwest;whiteSpace=wrap;html=1;" parent="vVKcExqLFnOQFm7sWjbY-229" vertex="1">
          <mxGeometry y="26" width="360" height="26" as="geometry" />
        </mxCell>
        <mxCell id="vVKcExqLFnOQFm7sWjbY-260" value="+ Date: DateTime &lt;&lt;+get&gt;&gt; &lt;&lt;+set&gt;&gt;" style="text;align=left;verticalAlign=top;spacingLeft=4;spacingRight=4;overflow=hidden;rotatable=0;points=[[0,0.5],[1,0.5]];portConstraint=eastwest;rounded=0;shadow=0;html=0;labelBackgroundColor=none;" parent="vVKcExqLFnOQFm7sWjbY-229" vertex="1">
          <mxGeometry y="52" width="360" height="26" as="geometry" />
        </mxCell>
        <mxCell id="vVKcExqLFnOQFm7sWjbY-263" value="+ Delay : double &lt;&lt;+get&gt;&gt; &lt;&lt;+set&gt;&gt;" style="text;align=left;verticalAlign=top;spacingLeft=4;spacingRight=4;overflow=hidden;rotatable=0;points=[[0,0.5],[1,0.5]];portConstraint=eastwest;rounded=0;shadow=0;html=0;labelBackgroundColor=none;" parent="vVKcExqLFnOQFm7sWjbY-229" vertex="1">
          <mxGeometry y="78" width="360" height="26" as="geometry" />
        </mxCell>
        <mxCell id="vVKcExqLFnOQFm7sWjbY-257" value="+ TimeOfReservation : DateTime &lt;&lt;+get&gt;&gt; &lt;&lt;+set&gt;&gt;" style="text;align=left;verticalAlign=top;spacingLeft=4;spacingRight=4;overflow=hidden;rotatable=0;points=[[0,0.5],[1,0.5]];portConstraint=eastwest;rounded=0;shadow=0;html=0;labelBackgroundColor=none;" parent="vVKcExqLFnOQFm7sWjbY-229" vertex="1">
          <mxGeometry y="104" width="360" height="26" as="geometry" />
        </mxCell>
        <mxCell id="vVKcExqLFnOQFm7sWjbY-233" value="DriverStats" style="swimlane;fontStyle=0;childLayout=stackLayout;horizontal=1;startSize=26;fillColor=none;horizontalStack=0;resizeParent=1;resizeParentMax=0;resizeLast=0;collapsible=1;marginBottom=0;whiteSpace=wrap;html=1;" parent="WIyWlLk6GJQsqaUBKTNV-1" vertex="1">
          <mxGeometry x="-770" y="-200" width="260" height="104" as="geometry" />
        </mxCell>
        <mxCell id="vVKcExqLFnOQFm7sWjbY-235" value="+ FastDrives: int &amp;lt;&amp;lt;+get&amp;gt;&amp;gt; &amp;lt;&amp;lt;+set&amp;gt;&amp;gt;" style="text;strokeColor=none;fillColor=none;align=left;verticalAlign=top;spacingLeft=4;spacingRight=4;overflow=hidden;rotatable=0;points=[[0,0.5],[1,0.5]];portConstraint=eastwest;whiteSpace=wrap;html=1;" parent="vVKcExqLFnOQFm7sWjbY-233" vertex="1">
          <mxGeometry y="26" width="260" height="26" as="geometry" />
        </mxCell>
        <mxCell id="vVKcExqLFnOQFm7sWjbY-236" value="+ CancelledDrives: int &amp;lt;&amp;lt;+get&amp;gt;&amp;gt; &amp;lt;&amp;lt;+set&amp;gt;&amp;gt;" style="text;strokeColor=none;fillColor=none;align=left;verticalAlign=top;spacingLeft=4;spacingRight=4;overflow=hidden;rotatable=0;points=[[0,0.5],[1,0.5]];portConstraint=eastwest;whiteSpace=wrap;html=1;" parent="vVKcExqLFnOQFm7sWjbY-233" vertex="1">
          <mxGeometry y="52" width="260" height="26" as="geometry" />
        </mxCell>
        <mxCell id="vVKcExqLFnOQFm7sWjbY-237" value="+ BonusPoints: int &amp;lt;&amp;lt;+get&amp;gt;&amp;gt; &amp;lt;&amp;lt;+set&amp;gt;&amp;gt;" style="text;strokeColor=none;fillColor=none;align=left;verticalAlign=top;spacingLeft=4;spacingRight=4;overflow=hidden;rotatable=0;points=[[0,0.5],[1,0.5]];portConstraint=eastwest;whiteSpace=wrap;html=1;" parent="vVKcExqLFnOQFm7sWjbY-233" vertex="1">
          <mxGeometry y="78" width="260" height="26" as="geometry" />
        </mxCell>
        <mxCell id="vVKcExqLFnOQFm7sWjbY-238" value="" style="endArrow=classic;html=1;rounded=0;edgeStyle=orthogonalEdgeStyle;" parent="WIyWlLk6GJQsqaUBKTNV-1" target="pA0bBhv7EQgGePk6_dJT-64" edge="1">
          <mxGeometry width="50" height="50" relative="1" as="geometry">
            <mxPoint x="-510" y="-120" as="sourcePoint" />
            <mxPoint x="-370" y="70" as="targetPoint" />
          </mxGeometry>
        </mxCell>
        <mxCell id="vVKcExqLFnOQFm7sWjbY-241" value="1..1" style="text;html=1;align=center;verticalAlign=middle;whiteSpace=wrap;rounded=0;" parent="WIyWlLk6GJQsqaUBKTNV-1" vertex="1">
          <mxGeometry x="-500" y="-50" width="60" height="30" as="geometry" />
        </mxCell>
        <mxCell id="vVKcExqLFnOQFm7sWjbY-242" value="0..1" style="text;html=1;align=center;verticalAlign=middle;whiteSpace=wrap;rounded=0;" parent="WIyWlLk6GJQsqaUBKTNV-1" vertex="1">
          <mxGeometry x="-520" y="-100" width="60" height="30" as="geometry" />
        </mxCell>
        <mxCell id="vVKcExqLFnOQFm7sWjbY-243" value="DriverStatsUpdate" style="swimlane;fontStyle=0;childLayout=stackLayout;horizontal=1;startSize=26;fillColor=none;horizontalStack=0;resizeParent=1;resizeParentMax=0;resizeLast=0;collapsible=1;marginBottom=0;whiteSpace=wrap;html=1;" parent="WIyWlLk6GJQsqaUBKTNV-1" vertex="1">
          <mxGeometry x="-540" y="-450" width="330" height="156" as="geometry" />
        </mxCell>
        <mxCell id="vVKcExqLFnOQFm7sWjbY-244" value="+ Id: int &amp;lt;&amp;lt;+get&amp;gt;&amp;gt; &amp;lt;&amp;lt;+set&amp;gt;&amp;gt;" style="text;strokeColor=none;fillColor=none;align=left;verticalAlign=top;spacingLeft=4;spacingRight=4;overflow=hidden;rotatable=0;points=[[0,0.5],[1,0.5]];portConstraint=eastwest;whiteSpace=wrap;html=1;" parent="vVKcExqLFnOQFm7sWjbY-243" vertex="1">
          <mxGeometry y="26" width="330" height="26" as="geometry" />
        </mxCell>
        <mxCell id="vVKcExqLFnOQFm7sWjbY-246" value="+ FastDrivesUpdate: int &amp;lt;&amp;lt;+get&amp;gt;&amp;gt; &amp;lt;&amp;lt;+set&amp;gt;&amp;gt;" style="text;strokeColor=none;fillColor=none;align=left;verticalAlign=top;spacingLeft=4;spacingRight=4;overflow=hidden;rotatable=0;points=[[0,0.5],[1,0.5]];portConstraint=eastwest;whiteSpace=wrap;html=1;" parent="vVKcExqLFnOQFm7sWjbY-243" vertex="1">
          <mxGeometry y="52" width="330" height="26" as="geometry" />
        </mxCell>
        <mxCell id="vVKcExqLFnOQFm7sWjbY-247" value="+ BonusPointsUpdate: int &amp;lt;&amp;lt;+get&amp;gt;&amp;gt; &amp;lt;&amp;lt;+set&amp;gt;&amp;gt;" style="text;strokeColor=none;fillColor=none;align=left;verticalAlign=top;spacingLeft=4;spacingRight=4;overflow=hidden;rotatable=0;points=[[0,0.5],[1,0.5]];portConstraint=eastwest;whiteSpace=wrap;html=1;" parent="vVKcExqLFnOQFm7sWjbY-243" vertex="1">
          <mxGeometry y="78" width="330" height="26" as="geometry" />
        </mxCell>
        <mxCell id="vVKcExqLFnOQFm7sWjbY-248" value="+ CancelledDrivesUpdate: int &amp;lt;&amp;lt;+get&amp;gt;&amp;gt; &amp;lt;&amp;lt;+set&amp;gt;&amp;gt;" style="text;strokeColor=none;fillColor=none;align=left;verticalAlign=top;spacingLeft=4;spacingRight=4;overflow=hidden;rotatable=0;points=[[0,0.5],[1,0.5]];portConstraint=eastwest;whiteSpace=wrap;html=1;" parent="vVKcExqLFnOQFm7sWjbY-243" vertex="1">
          <mxGeometry y="104" width="330" height="26" as="geometry" />
        </mxCell>
        <mxCell id="vVKcExqLFnOQFm7sWjbY-249" value="+ DateOfUpdate: DateTime &amp;lt;&amp;lt;+get&amp;gt;&amp;gt; &amp;lt;&amp;lt;+set&amp;gt;&amp;gt;" style="text;strokeColor=none;fillColor=none;align=left;verticalAlign=top;spacingLeft=4;spacingRight=4;overflow=hidden;rotatable=0;points=[[0,0.5],[1,0.5]];portConstraint=eastwest;whiteSpace=wrap;html=1;" parent="vVKcExqLFnOQFm7sWjbY-243" vertex="1">
          <mxGeometry y="130" width="330" height="26" as="geometry" />
        </mxCell>
        <mxCell id="vVKcExqLFnOQFm7sWjbY-251" value="" style="endArrow=classic;html=1;rounded=0;edgeStyle=orthogonalEdgeStyle;" parent="WIyWlLk6GJQsqaUBKTNV-1" source="vVKcExqLFnOQFm7sWjbY-243" target="pA0bBhv7EQgGePk6_dJT-64" edge="1">
          <mxGeometry width="50" height="50" relative="1" as="geometry">
            <mxPoint x="-300" y="-110" as="sourcePoint" />
            <mxPoint x="-250" y="-160" as="targetPoint" />
            <Array as="points">
              <mxPoint x="-380" y="-190" />
              <mxPoint x="-380" y="-190" />
            </Array>
          </mxGeometry>
        </mxCell>
        <mxCell id="vVKcExqLFnOQFm7sWjbY-252" value="1..1" style="text;html=1;align=center;verticalAlign=middle;whiteSpace=wrap;rounded=0;" parent="WIyWlLk6GJQsqaUBKTNV-1" vertex="1">
          <mxGeometry x="-430" y="-50" width="60" height="30" as="geometry" />
        </mxCell>
        <mxCell id="vVKcExqLFnOQFm7sWjbY-253" value="0..*" style="text;html=1;align=center;verticalAlign=middle;whiteSpace=wrap;rounded=0;" parent="WIyWlLk6GJQsqaUBKTNV-1" vertex="1">
          <mxGeometry x="-390" y="-268" width="60" height="30" as="geometry" />
        </mxCell>
        <mxCell id="vVKcExqLFnOQFm7sWjbY-267" value="" style="endArrow=classic;html=1;rounded=0;entryX=1;entryY=0.5;entryDx=0;entryDy=0;exitX=0;exitY=0.154;exitDx=0;exitDy=0;exitPerimeter=0;edgeStyle=orthogonalEdgeStyle;" parent="WIyWlLk6GJQsqaUBKTNV-1" target="pA0bBhv7EQgGePk6_dJT-135" edge="1">
          <mxGeometry width="50" height="50" relative="1" as="geometry">
            <mxPoint x="730" y="918.0040000000004" as="sourcePoint" />
            <mxPoint x="370" y="800" as="targetPoint" />
          </mxGeometry>
        </mxCell>
        <mxCell id="vVKcExqLFnOQFm7sWjbY-268" value="1..1" style="text;html=1;align=center;verticalAlign=middle;whiteSpace=wrap;rounded=0;" parent="WIyWlLk6GJQsqaUBKTNV-1" vertex="1">
          <mxGeometry x="370" y="800" width="60" height="30" as="geometry" />
        </mxCell>
        <mxCell id="vVKcExqLFnOQFm7sWjbY-269" value="0..*" style="text;html=1;align=center;verticalAlign=middle;whiteSpace=wrap;rounded=0;" parent="WIyWlLk6GJQsqaUBKTNV-1" vertex="1">
          <mxGeometry x="680" y="760" width="60" height="30" as="geometry" />
        </mxCell>
        <mxCell id="vVKcExqLFnOQFm7sWjbY-270" value="" style="endArrow=classic;html=1;rounded=0;entryX=1.008;entryY=0.048;entryDx=0;entryDy=0;entryPerimeter=0;exitX=0;exitY=0.202;exitDx=0;exitDy=0;exitPerimeter=0;edgeStyle=orthogonalEdgeStyle;" parent="WIyWlLk6GJQsqaUBKTNV-1" edge="1">
          <mxGeometry width="50" height="50" relative="1" as="geometry">
            <mxPoint x="1210" y="967.252" as="sourcePoint" />
            <mxPoint x="1092.8799999999997" y="915.2480000000005" as="targetPoint" />
            <Array as="points">
              <mxPoint x="1150" y="967" />
              <mxPoint x="1150" y="915" />
            </Array>
          </mxGeometry>
        </mxCell>
        <mxCell id="vVKcExqLFnOQFm7sWjbY-272" value="1..1" style="text;html=1;align=center;verticalAlign=middle;whiteSpace=wrap;rounded=0;" parent="WIyWlLk6GJQsqaUBKTNV-1" vertex="1">
          <mxGeometry x="1090" y="910" width="60" height="30" as="geometry" />
        </mxCell>
        <mxCell id="vVKcExqLFnOQFm7sWjbY-273" value="0..*" style="text;html=1;align=center;verticalAlign=middle;whiteSpace=wrap;rounded=0;" parent="WIyWlLk6GJQsqaUBKTNV-1" vertex="1">
          <mxGeometry x="1160" y="970" width="60" height="30" as="geometry" />
        </mxCell>
        <mxCell id="KK_UZ6puGZd0_c0NW_Tj-4" style="edgeStyle=orthogonalEdgeStyle;rounded=0;orthogonalLoop=1;jettySize=auto;html=1;exitX=1;exitY=0.5;exitDx=0;exitDy=0;entryX=0;entryY=0.5;entryDx=0;entryDy=0;" parent="WIyWlLk6GJQsqaUBKTNV-1" source="pA0bBhv7EQgGePk6_dJT-146" target="pA0bBhv7EQgGePk6_dJT-66" edge="1">
          <mxGeometry relative="1" as="geometry">
            <Array as="points">
              <mxPoint x="-550" y="290" />
              <mxPoint x="-530" y="290" />
              <mxPoint x="-530" y="189" />
              <mxPoint x="-600" y="189" />
              <mxPoint x="-600" y="45" />
            </Array>
          </mxGeometry>
        </mxCell>
        <mxCell id="KK_UZ6puGZd0_c0NW_Tj-5" value="1..1" style="text;html=1;align=center;verticalAlign=middle;whiteSpace=wrap;rounded=0;" parent="WIyWlLk6GJQsqaUBKTNV-1" vertex="1">
          <mxGeometry x="-630" y="17" width="60" height="30" as="geometry" />
        </mxCell>
        <mxCell id="KK_UZ6puGZd0_c0NW_Tj-6" value="0..*" style="text;html=1;align=center;verticalAlign=middle;whiteSpace=wrap;rounded=0;labelBackgroundColor=none;" parent="WIyWlLk6GJQsqaUBKTNV-1" vertex="1">
          <mxGeometry x="-580" y="238" width="60" height="30" as="geometry" />
        </mxCell>
        <mxCell id="KK_UZ6puGZd0_c0NW_Tj-12" value="0..*" style="text;html=1;align=center;verticalAlign=middle;whiteSpace=wrap;rounded=0;labelBackgroundColor=none;" parent="WIyWlLk6GJQsqaUBKTNV-1" vertex="1">
          <mxGeometry x="-490" y="640" width="60" height="30" as="geometry" />
        </mxCell>
        <mxCell id="KK_UZ6puGZd0_c0NW_Tj-13" value="1..1" style="text;html=1;align=center;verticalAlign=middle;whiteSpace=wrap;rounded=0;labelBackgroundColor=none;" parent="WIyWlLk6GJQsqaUBKTNV-1" vertex="1">
          <mxGeometry x="-370" y="120" width="60" height="30" as="geometry" />
        </mxCell>
        <mxCell id="KK_UZ6puGZd0_c0NW_Tj-14" value="" style="endArrow=classic;html=1;rounded=0;entryX=0;entryY=0.054;entryDx=0;entryDy=0;entryPerimeter=0;" parent="WIyWlLk6GJQsqaUBKTNV-1" target="pA0bBhv7EQgGePk6_dJT-136" edge="1">
          <mxGeometry width="50" height="50" relative="1" as="geometry">
            <mxPoint x="-470" y="810" as="sourcePoint" />
            <mxPoint x="-330" y="810" as="targetPoint" />
          </mxGeometry>
        </mxCell>
        <mxCell id="KK_UZ6puGZd0_c0NW_Tj-16" value="" style="endArrow=none;html=1;rounded=0;" parent="WIyWlLk6GJQsqaUBKTNV-1" edge="1">
          <mxGeometry width="50" height="50" relative="1" as="geometry">
            <mxPoint x="50" y="620" as="sourcePoint" />
            <mxPoint x="270" y="620" as="targetPoint" />
          </mxGeometry>
        </mxCell>
        <mxCell id="KK_UZ6puGZd0_c0NW_Tj-17" value="" style="endArrow=classic;html=1;rounded=0;entryX=0.5;entryY=0;entryDx=0;entryDy=0;" parent="WIyWlLk6GJQsqaUBKTNV-1" target="pA0bBhv7EQgGePk6_dJT-132" edge="1">
          <mxGeometry width="50" height="50" relative="1" as="geometry">
            <mxPoint x="270" y="620" as="sourcePoint" />
            <mxPoint x="310" y="620" as="targetPoint" />
          </mxGeometry>
        </mxCell>
        <mxCell id="KK_UZ6puGZd0_c0NW_Tj-18" value="1..1" style="text;html=1;align=center;verticalAlign=middle;whiteSpace=wrap;rounded=0;labelBackgroundColor=none;" parent="WIyWlLk6GJQsqaUBKTNV-1" vertex="1">
          <mxGeometry x="260" y="700" width="60" height="30" as="geometry" />
        </mxCell>
        <mxCell id="KK_UZ6puGZd0_c0NW_Tj-19" value="0..*" style="text;html=1;align=center;verticalAlign=middle;whiteSpace=wrap;rounded=0;labelBackgroundColor=none;" parent="WIyWlLk6GJQsqaUBKTNV-1" vertex="1">
          <mxGeometry x="40" y="622" width="60" height="30" as="geometry" />
        </mxCell>
        <mxCell id="KK_UZ6puGZd0_c0NW_Tj-23" value="" style="endArrow=classic;html=1;rounded=0;entryX=0;entryY=1;entryDx=0;entryDy=0;" parent="WIyWlLk6GJQsqaUBKTNV-1" target="pA0bBhv7EQgGePk6_dJT-132" edge="1">
          <mxGeometry width="50" height="50" relative="1" as="geometry">
            <mxPoint x="-470" y="840" as="sourcePoint" />
            <mxPoint x="-300" y="840" as="targetPoint" />
          </mxGeometry>
        </mxCell>
        <mxCell id="KK_UZ6puGZd0_c0NW_Tj-24" value="0..*" style="text;html=1;align=center;verticalAlign=middle;whiteSpace=wrap;rounded=0;labelBackgroundColor=none;" parent="WIyWlLk6GJQsqaUBKTNV-1" vertex="1">
          <mxGeometry x="-480" y="840" width="50" height="24" as="geometry" />
        </mxCell>
        <mxCell id="KK_UZ6puGZd0_c0NW_Tj-25" value="1..1" style="text;html=1;align=center;verticalAlign=middle;whiteSpace=wrap;rounded=0;labelBackgroundColor=none;" parent="WIyWlLk6GJQsqaUBKTNV-1" vertex="1">
          <mxGeometry x="110" y="840" width="60" height="30" as="geometry" />
        </mxCell>
        <mxCell id="KK_UZ6puGZd0_c0NW_Tj-27" value="1..1" style="text;html=1;align=center;verticalAlign=middle;whiteSpace=wrap;rounded=0;labelBackgroundColor=none;" parent="WIyWlLk6GJQsqaUBKTNV-1" vertex="1">
          <mxGeometry x="-413" y="108" width="60" height="30" as="geometry" />
        </mxCell>
        <mxCell id="KK_UZ6puGZd0_c0NW_Tj-28" value="0..*" style="text;html=1;align=center;verticalAlign=middle;whiteSpace=wrap;rounded=0;labelBackgroundColor=none;" parent="WIyWlLk6GJQsqaUBKTNV-1" vertex="1">
          <mxGeometry x="-290" y="457" width="60" height="30" as="geometry" />
        </mxCell>
        <mxCell id="KK_UZ6puGZd0_c0NW_Tj-30" value="" style="endArrow=none;html=1;rounded=0;" parent="WIyWlLk6GJQsqaUBKTNV-1" edge="1">
          <mxGeometry width="50" height="50" relative="1" as="geometry">
            <mxPoint x="970" y="50" as="sourcePoint" />
            <mxPoint x="970" y="-280" as="targetPoint" />
          </mxGeometry>
        </mxCell>
        <mxCell id="KK_UZ6puGZd0_c0NW_Tj-31" value="" style="endArrow=none;html=1;rounded=0;" parent="WIyWlLk6GJQsqaUBKTNV-1" edge="1">
          <mxGeometry width="50" height="50" relative="1" as="geometry">
            <mxPoint x="970" y="-280" as="sourcePoint" />
            <mxPoint x="-182.8235581341912" y="-280" as="targetPoint" />
          </mxGeometry>
        </mxCell>
        <mxCell id="KK_UZ6puGZd0_c0NW_Tj-32" value="" style="endArrow=none;html=1;rounded=0;" parent="WIyWlLk6GJQsqaUBKTNV-1" edge="1">
          <mxGeometry width="50" height="50" relative="1" as="geometry">
            <mxPoint x="-180" y="-250" as="sourcePoint" />
            <mxPoint x="-180" y="-278" as="targetPoint" />
          </mxGeometry>
        </mxCell>
        <mxCell id="KK_UZ6puGZd0_c0NW_Tj-33" value="" style="endArrow=none;html=1;rounded=0;" parent="WIyWlLk6GJQsqaUBKTNV-1" edge="1">
          <mxGeometry width="50" height="50" relative="1" as="geometry">
            <mxPoint x="-320" y="-250" as="sourcePoint" />
            <mxPoint x="-180" y="-250" as="targetPoint" />
          </mxGeometry>
        </mxCell>
        <mxCell id="KK_UZ6puGZd0_c0NW_Tj-34" value="" style="endArrow=classic;html=1;rounded=0;entryX=1;entryY=0;entryDx=0;entryDy=0;" parent="WIyWlLk6GJQsqaUBKTNV-1" target="pA0bBhv7EQgGePk6_dJT-64" edge="1">
          <mxGeometry width="50" height="50" relative="1" as="geometry">
            <mxPoint x="-320" y="-250" as="sourcePoint" />
            <mxPoint x="-240" y="-230" as="targetPoint" />
          </mxGeometry>
        </mxCell>
        <mxCell id="KK_UZ6puGZd0_c0NW_Tj-35" value="1..1" style="text;html=1;align=center;verticalAlign=middle;whiteSpace=wrap;rounded=0;labelBackgroundColor=none;" parent="WIyWlLk6GJQsqaUBKTNV-1" vertex="1">
          <mxGeometry x="-330" y="-50" width="60" height="30" as="geometry" />
        </mxCell>
        <mxCell id="KK_UZ6puGZd0_c0NW_Tj-37" value="0..*" style="text;html=1;align=center;verticalAlign=middle;whiteSpace=wrap;rounded=0;labelBackgroundColor=none;" parent="WIyWlLk6GJQsqaUBKTNV-1" vertex="1">
          <mxGeometry x="960" y="20" width="60" height="30" as="geometry" />
        </mxCell>
        <mxCell id="KK_UZ6puGZd0_c0NW_Tj-38" style="edgeStyle=orthogonalEdgeStyle;rounded=0;orthogonalLoop=1;jettySize=auto;html=1;exitX=0;exitY=0.5;exitDx=0;exitDy=0;entryX=0;entryY=0;entryDx=0;entryDy=0;" parent="WIyWlLk6GJQsqaUBKTNV-1" source="pA0bBhv7EQgGePk6_dJT-38" target="zkfFHV4jXpPFQw0GAbJ--17" edge="1">
          <mxGeometry relative="1" as="geometry" />
        </mxCell>
        <mxCell id="KK_UZ6puGZd0_c0NW_Tj-39" value="1..1" style="text;html=1;align=center;verticalAlign=middle;whiteSpace=wrap;rounded=0;labelBackgroundColor=none;" parent="WIyWlLk6GJQsqaUBKTNV-1" vertex="1">
          <mxGeometry x="-250" y="17" width="60" height="30" as="geometry" />
        </mxCell>
        <mxCell id="KK_UZ6puGZd0_c0NW_Tj-40" value="1..*" style="text;html=1;align=center;verticalAlign=middle;whiteSpace=wrap;rounded=0;labelBackgroundColor=none;" parent="WIyWlLk6GJQsqaUBKTNV-1" vertex="1">
          <mxGeometry x="-250" y="130" width="60" height="30" as="geometry" />
        </mxCell>
        <mxCell id="qicbaRNjikcL0iPTBEU7-3" value="" style="endArrow=classic;html=1;rounded=0;entryX=1.007;entryY=1.174;entryDx=0;entryDy=0;entryPerimeter=0;exitX=0;exitY=0.5;exitDx=0;exitDy=0;edgeStyle=orthogonalEdgeStyle;" parent="WIyWlLk6GJQsqaUBKTNV-1" target="pA0bBhv7EQgGePk6_dJT-136" edge="1">
          <mxGeometry width="50" height="50" relative="1" as="geometry">
            <mxPoint x="730" y="927.0000000000005" as="sourcePoint" />
            <mxPoint x="620" y="850" as="targetPoint" />
            <Array as="points">
              <mxPoint x="500" y="1031" />
              <mxPoint x="500" y="839" />
            </Array>
          </mxGeometry>
        </mxCell>
        <mxCell id="qicbaRNjikcL0iPTBEU7-4" value="0..*" style="text;html=1;align=center;verticalAlign=middle;whiteSpace=wrap;rounded=0;" parent="WIyWlLk6GJQsqaUBKTNV-1" vertex="1">
          <mxGeometry x="680" y="966" width="60" height="30" as="geometry" />
        </mxCell>
        <mxCell id="qicbaRNjikcL0iPTBEU7-5" value="1..1" style="text;html=1;align=center;verticalAlign=middle;whiteSpace=wrap;rounded=0;" parent="WIyWlLk6GJQsqaUBKTNV-1" vertex="1">
          <mxGeometry x="384" y="850" width="60" height="30" as="geometry" />
        </mxCell>
        <mxCell id="qicbaRNjikcL0iPTBEU7-6" value="" style="endArrow=classic;html=1;rounded=0;exitX=0.238;exitY=1.038;exitDx=0;exitDy=0;exitPerimeter=0;entryX=0;entryY=0;entryDx=0;entryDy=0;edgeStyle=orthogonalEdgeStyle;" parent="WIyWlLk6GJQsqaUBKTNV-1" source="vVKcExqLFnOQFm7sWjbY-257" target="pA0bBhv7EQgGePk6_dJT-64" edge="1">
          <mxGeometry width="50" height="50" relative="1" as="geometry">
            <mxPoint x="-60" y="580" as="sourcePoint" />
            <mxPoint x="-10" y="530" as="targetPoint" />
            <Array as="points">
              <mxPoint x="816" y="1160" />
              <mxPoint x="-890" y="1160" />
              <mxPoint x="-890" y="-30" />
              <mxPoint x="-580" y="-30" />
            </Array>
          </mxGeometry>
        </mxCell>
        <mxCell id="qicbaRNjikcL0iPTBEU7-8" value="1..1" style="text;html=1;align=center;verticalAlign=middle;whiteSpace=wrap;rounded=0;" parent="WIyWlLk6GJQsqaUBKTNV-1" vertex="1">
          <mxGeometry x="-630" y="-58" width="60" height="30" as="geometry" />
        </mxCell>
        <mxCell id="qicbaRNjikcL0iPTBEU7-9" value="0..*" style="text;html=1;align=center;verticalAlign=middle;whiteSpace=wrap;rounded=0;" parent="WIyWlLk6GJQsqaUBKTNV-1" vertex="1">
          <mxGeometry x="805" y="992" width="60" height="30" as="geometry" />
        </mxCell>
        <mxCell id="qicbaRNjikcL0iPTBEU7-11" value="" style="endArrow=classic;html=1;rounded=0;entryX=0.847;entryY=-0.014;entryDx=0;entryDy=0;edgeStyle=orthogonalEdgeStyle;entryPerimeter=0;" parent="WIyWlLk6GJQsqaUBKTNV-1" source="vVKcExqLFnOQFm7sWjbY-257" edge="1" target="pA0bBhv7EQgGePk6_dJT-64">
          <mxGeometry width="50" height="50" relative="1" as="geometry">
            <mxPoint x="1140.1599999999999" y="913.998" as="sourcePoint" />
            <mxPoint x="-305" y="-70" as="targetPoint" />
            <Array as="points">
              <mxPoint x="1029" y="1200" />
              <mxPoint x="-950" y="1200" />
              <mxPoint x="-950" y="-90" />
              <mxPoint x="-360" y="-90" />
            </Array>
          </mxGeometry>
        </mxCell>
        <mxCell id="qicbaRNjikcL0iPTBEU7-12" value="1..1" style="text;html=1;align=center;verticalAlign=middle;whiteSpace=wrap;rounded=0;" parent="WIyWlLk6GJQsqaUBKTNV-1" vertex="1">
          <mxGeometry x="-570" y="-62" width="60" height="30" as="geometry" />
        </mxCell>
        <mxCell id="qicbaRNjikcL0iPTBEU7-13" value="0..*" style="text;html=1;align=center;verticalAlign=middle;whiteSpace=wrap;rounded=0;" parent="WIyWlLk6GJQsqaUBKTNV-1" vertex="1">
          <mxGeometry x="970" y="992" width="60" height="30" as="geometry" />
        </mxCell>
        <mxCell id="qicbaRNjikcL0iPTBEU7-16" value="" style="endArrow=classic;html=1;rounded=0;exitX=0;exitY=0.5;exitDx=0;exitDy=0;edgeStyle=orthogonalEdgeStyle;" parent="WIyWlLk6GJQsqaUBKTNV-1" source="vVKcExqLFnOQFm7sWjbY-260" target="pA0bBhv7EQgGePk6_dJT-123" edge="1">
          <mxGeometry width="50" height="50" relative="1" as="geometry">
            <mxPoint x="-270" y="810" as="sourcePoint" />
            <mxPoint x="-220" y="760" as="targetPoint" />
          </mxGeometry>
        </mxCell>
        <mxCell id="qicbaRNjikcL0iPTBEU7-17" value="0..1" style="text;html=1;align=center;verticalAlign=middle;whiteSpace=wrap;rounded=0;" parent="WIyWlLk6GJQsqaUBKTNV-1" vertex="1">
          <mxGeometry x="680" y="870" width="60" height="30" as="geometry" />
        </mxCell>
        <mxCell id="qicbaRNjikcL0iPTBEU7-18" value="1..1" style="text;html=1;align=center;verticalAlign=middle;whiteSpace=wrap;rounded=0;" parent="WIyWlLk6GJQsqaUBKTNV-1" vertex="1">
          <mxGeometry x="-320" y="760" width="60" height="30" as="geometry" />
        </mxCell>
        <mxCell id="g45S62eUNXzZ3OmeKIY_-0" value="1..1" style="text;html=1;align=center;verticalAlign=middle;whiteSpace=wrap;rounded=0;labelBackgroundColor=none;" vertex="1" parent="WIyWlLk6GJQsqaUBKTNV-1">
          <mxGeometry x="-380" y="-58" width="60" height="30" as="geometry" />
        </mxCell>
      </root>
    </mxGraphModel>
  </diagram>
</mxfile>
